Coda.ufo
<glyph name="exclam" format="1">
  <advance width="519"/>
  <unicode hex="0021"/>
  <outline>
    <contour>
      <point x="177" y="1556"/>
      <point x="152" y="1510"/>
      <point x="152" y="1418" type="curve" smooth="yes"/>
      <point x="152" y="1386"/>
      <point x="193" y="917"/>
      <point x="231" y="534" type="curve" smooth="yes"/>
      <point x="234" y="503"/>
      <point x="248" y="498"/>
      <point x="260" y="498" type="curve" smooth="yes"/>
      <point x="272" y="498"/>
      <point x="286" y="503"/>
      <point x="289" y="534" type="curve" smooth="yes"/>
      <point x="324" y="917"/>
      <point x="368" y="1386"/>
      <point x="368" y="1418" type="curve" smooth="yes"/>
      <point x="368" y="1510"/>
      <point x="343" y="1556"/>
      <point x="260" y="1556" type="curve" smooth="yes"/>
    </contour>
    <contour>
      <point x="163" y="228" type="line"/>
      <point x="162" y="0" type="line"/>
      <point x="360" y="0" type="line"/>
      <point x="359" y="228" type="line"/>
    </contour>
  </outline>
</glyph>
<glyph name="quotedbl" format="1">
  <advance width="721"/>
  <unicode hex="0022"/>
  <outline>
    <contour>
      <point x="449" y="1500"/>
      <point x="435" y="1460"/>
      <point x="435" y="1363" type="curve" smooth="yes"/>
      <point x="435" y="1284"/>
      <point x="510" y="929"/>
      <point x="510" y="929" type="curve"/>
      <point x="535" y="923" type="line"/>
      <point x="535" y="923"/>
      <point x="608" y="1295"/>
      <point x="608" y="1378" type="curve" smooth="yes"/>
      <point x="608" y="1460"/>
      <point x="578" y="1500"/>
      <point x="522" y="1500" type="curve" smooth="yes"/>
    </contour>
    <contour>
      <point x="140" y="1500"/>
      <point x="126" y="1460"/>
      <point x="126" y="1363" type="curve" smooth="yes"/>
      <point x="126" y="1284"/>
      <point x="201" y="929"/>
      <point x="201" y="929" type="curve"/>
      <point x="226" y="923" type="line"/>
      <point x="226" y="923"/>
      <point x="299" y="1295"/>
      <point x="299" y="1378" type="curve" smooth="yes"/>
      <point x="299" y="1460"/>
      <point x="269" y="1500"/>
      <point x="213" y="1500" type="curve" smooth="yes"/>
    </contour>
  </outline>
</glyph>
<glyph name="ampersand" format="1">
  <advance width="1480"/>
  <unicode hex="0026"/>
  <outline>
    <contour>
      <point x="331" y="1522"/>
      <point x="209" y="1431"/>
      <point x="209" y="1146" type="curve" smooth="yes"/>
      <point x="209" y="982"/>
      <point x="258" y="857"/>
      <point x="360" y="825" type="curve"/>
      <point x="222" y="797"/>
      <point x="146" y="644"/>
      <point x="146" y="382" type="curve" smooth="yes"/>
      <point x="146" y="104"/>
      <point x="307" y="-23"/>
      <point x="658" y="-23" type="curve" smooth="yes"/>
      <point x="999" y="-23"/>
      <point x="1213" y="117"/>
      <point x="1213" y="371" type="curve"/>
      <point x="1212" y="727" type="line"/>
      <point x="1346" y="728" type="line"/>
      <point x="1346" y="853" type="line"/>
      <point x="1213" y="853" type="line"/>
      <point x="1213" y="962" type="line"/>
      <point x="1030" y="962" type="line"/>
      <point x="1030" y="853" type="line"/>
      <point x="549" y="853" type="line" smooth="yes"/>
      <point x="459" y="853"/>
      <point x="406" y="898"/>
      <point x="406" y="1146" type="curve" smooth="yes"/>
      <point x="406" y="1306"/>
      <point x="480" y="1357"/>
      <point x="712" y="1357" type="curve" smooth="yes"/>
      <point x="1003" y="1357"/>
      <point x="1033" y="1340"/>
      <point x="1043" y="1183" type="curve"/>
      <point x="1195" y="1208" type="line"/>
      <point x="1195" y="1246"/>
      <point x="1191" y="1284"/>
      <point x="1188" y="1322" type="curve" smooth="yes"/>
      <point x="1171" y="1508"/>
      <point x="1016" y="1522"/>
      <point x="712" y="1522" type="curve" smooth="yes"/>
    </contour>
    <contour>
      <point x="1030" y="357" type="line" smooth="yes"/>
      <point x="1030" y="211"/>
      <point x="887" y="138"/>
      <point x="658" y="138" type="curve" smooth="yes"/>
      <point x="441" y="138"/>
      <point x="342" y="215"/>
      <point x="342" y="382" type="curve" smooth="yes"/>
      <point x="342" y="607"/>
      <point x="345" y="728"/>
      <point x="493" y="728" type="curve" smooth="yes"/>
      <point x="1030" y="728" type="line"/>
    </contour>
  </outline>
</glyph>
<glyph name="quotesingle" format="1">
  <advance width="442"/>
  <unicode hex="0027"/>
  <outline>
    <contour>
      <point x="150" y="1500"/>
      <point x="136" y="1460"/>
      <point x="136" y="1363" type="curve" smooth="yes"/>
      <point x="136" y="1284"/>
      <point x="211" y="929"/>
      <point x="211" y="929" type="curve"/>
      <point x="236" y="923" type="line"/>
      <point x="236" y="923"/>
      <point x="309" y="1295"/>
      <point x="309" y="1378" type="curve" smooth="yes"/>
      <point x="309" y="1460"/>
      <point x="279" y="1500"/>
      <point x="223" y="1500" type="curve" smooth="yes"/>
    </contour>
  </outline>
</glyph>
<glyph name="plus" format="1">
  <advance width="1030"/>
  <unicode hex="002B"/>
  <outline>
    <contour>
      <point x="431" y="1117" type="line"/>
      <point x="431" y="754" type="line"/>
      <point x="124" y="754" type="line"/>
      <point x="124" y="585" type="line"/>
      <point x="431" y="585" type="line"/>
      <point x="431" y="223" type="line"/>
      <point x="597" y="223" type="line"/>
      <point x="597" y="585" type="line"/>
      <point x="905" y="585" type="line"/>
      <point x="905" y="754" type="line"/>
      <point x="597" y="754" type="line"/>
      <point x="597" y="1117" type="line"/>
    </contour>
  </outline>
</glyph>
<glyph name="one" format="1">
  <advance width="658"/>
  <unicode hex="0031"/>
  <outline>
    <contour>
      <point x="342" y="1490" type="line"/>
      <point x="303" y="1394"/>
      <point x="227" y="1348"/>
      <point x="125" y="1344" type="curve"/>
      <point x="125" y="1252" type="line"/>
      <point x="310" y="1252" type="line"/>
      <point x="310" y="0" type="line"/>
      <point x="497" y="0" type="line"/>
      <point x="497" y="1490" type="line"/>
    </contour>
  </outline>
</glyph>
<glyph name="three" format="1">
  <advance width="1217"/>
  <unicode hex="0033"/>
  <outline>
    <contour>
      <point x="226" y="1506"/>
      <point x="162" y="1425"/>
      <point x="162" y="1202" type="curve" smooth="yes"/>
      <point x="162" y="1174" type="line"/>
      <point x="316" y="1144" type="line"/>
      <point x="325" y="1253" type="line" smooth="yes"/>
      <point x="332" y="1343"/>
      <point x="397" y="1368"/>
      <point x="599" y="1368" type="curve" smooth="yes"/>
      <point x="843" y="1368"/>
      <point x="878" y="1321"/>
      <point x="878" y="1172" type="curve" smooth="yes"/>
      <point x="878" y="1139" type="line" smooth="yes"/>
      <point x="878" y="932"/>
      <point x="873" y="847"/>
      <point x="653" y="841" type="curve" smooth="yes"/>
      <point x="615" y="840"/>
      <point x="577" y="840"/>
      <point x="492" y="840" type="curve"/>
      <point x="500" y="698" type="line"/>
      <point x="513" y="698" type="line" smooth="yes"/>
      <point x="798" y="698"/>
      <point x="885" y="696"/>
      <point x="885" y="424" type="curve" smooth="yes"/>
      <point x="885" y="419" type="line" smooth="yes"/>
      <point x="885" y="164"/>
      <point x="884" y="122"/>
      <point x="591" y="122" type="curve" smooth="yes"/>
      <point x="331" y="122"/>
      <point x="321" y="166"/>
      <point x="305" y="351" type="curve"/>
      <point x="145" y="328" type="line"/>
      <point x="144" y="304"/>
      <point x="144" y="283"/>
      <point x="144" y="265" type="curve" smooth="yes"/>
      <point x="144" y="34"/>
      <point x="299" y="-16"/>
      <point x="567" y="-16" type="curve" smooth="yes"/>
      <point x="888" y="-16"/>
      <point x="1067" y="63"/>
      <point x="1067" y="420" type="curve" smooth="yes"/>
      <point x="1067" y="728"/>
      <point x="890" y="761"/>
      <point x="846" y="769" type="curve"/>
      <point x="881" y="777"/>
      <point x="1058" y="793"/>
      <point x="1058" y="1134" type="curve" smooth="yes"/>
      <point x="1058" y="1394"/>
      <point x="921" y="1506"/>
      <point x="611" y="1506" type="curve" smooth="yes"/>
    </contour>
  </outline>
</glyph>
<glyph name="four" format="1">
  <advance width="1204"/>
  <unicode hex="0034"/>
  <outline>
    <contour>
      <point x="641" y="1490" type="line"/>
      <point x="123" y="539" type="line"/>
      <point x="123" y="389" type="line"/>
      <point x="745" y="389" type="line"/>
      <point x="745" y="0" type="line"/>
      <point x="930" y="0" type="line"/>
      <point x="930" y="390" type="line"/>
      <point x="1069" y="390" type="line"/>
      <point x="1069" y="521" type="line"/>
      <point x="930" y="521" type="line"/>
      <point x="930" y="1490" type="line"/>
    </contour>
    <contour>
      <point x="745" y="521" type="line"/>
      <point x="316" y="521" type="line"/>
      <point x="346" y="582"/>
      <point x="381" y="648"/>
      <point x="413" y="713" type="curve" smooth="yes"/>
      <point x="648" y="1193" type="line" smooth="yes"/>
      <point x="680" y="1258"/>
      <point x="715" y="1324"/>
      <point x="745" y="1387" type="curve"/>
    </contour>
  </outline>
</glyph>
<glyph name="six" format="1">
  <advance width="1301"/>
  <unicode hex="0036"/>
  <outline>
    <contour>
      <point x="167" y="1500"/>
      <point x="152" y="1286"/>
      <point x="152" y="761" type="curve" smooth="yes"/>
      <point x="152" y="655" type="line" smooth="yes"/>
      <point x="152" y="110"/>
      <point x="195" y="-16"/>
      <point x="685" y="-16" type="curve" smooth="yes"/>
      <point x="1067" y="-16"/>
      <point x="1156" y="95"/>
      <point x="1156" y="488" type="curve" smooth="yes"/>
      <point x="1156" y="880"/>
      <point x="1035" y="948"/>
      <point x="675" y="948" type="curve" smooth="yes"/>
      <point x="484" y="948"/>
      <point x="396" y="882"/>
      <point x="341" y="782" type="curve"/>
      <point x="344" y="919"/>
      <point x="347" y="1053"/>
      <point x="355" y="1187" type="curve" smooth="yes"/>
      <point x="364" y="1322"/>
      <point x="434" y="1364"/>
      <point x="672" y="1364" type="curve" smooth="yes"/>
      <point x="907" y="1364"/>
      <point x="910" y="1348"/>
      <point x="910" y="1152" type="curve"/>
      <point x="962" y="1160"/>
      <point x="1016" y="1167"/>
      <point x="1070" y="1173" type="curve"/>
      <point x="1075" y="1223"/>
      <point x="1078" y="1256"/>
      <point x="1078" y="1272" type="curve" smooth="yes"/>
      <point x="1078" y="1479"/>
      <point x="900" y="1500"/>
      <point x="662" y="1500" type="curve" smooth="yes"/>
    </contour>
    <contour>
      <point x="964" y="794"/>
      <point x="975" y="749"/>
      <point x="975" y="530" type="curve" smooth="yes"/>
      <point x="975" y="479"/>
      <point x="974" y="418"/>
      <point x="974" y="333" type="curve" smooth="yes"/>
      <point x="974" y="177"/>
      <point x="955" y="121"/>
      <point x="659" y="121" type="curve" smooth="yes"/>
      <point x="365" y="121"/>
      <point x="336" y="201"/>
      <point x="336" y="370" type="curve" smooth="yes"/>
      <point x="336" y="415"/>
      <point x="338" y="466"/>
      <point x="338" y="524" type="curve" smooth="yes"/>
      <point x="338" y="705"/>
      <point x="341" y="794"/>
      <point x="660" y="794" type="curve" smooth="yes"/>
    </contour>
  </outline>
</glyph>
<glyph name="colon" format="1">
  <advance width="572"/>
  <unicode hex="003A"/>
  <outline>
    <contour>
      <point x="216" y="1232"/>
      <point x="147" y="1182"/>
      <point x="147" y="1079" type="curve" smooth="yes"/>
      <point x="147" y="977"/>
      <point x="218" y="925"/>
      <point x="288" y="925" type="curve" smooth="yes"/>
      <point x="358" y="925"/>
      <point x="427" y="976"/>
      <point x="427" y="1079" type="curve" smooth="yes"/>
      <point x="427" y="1180"/>
      <point x="356" y="1232"/>
      <point x="286" y="1232" type="curve" smooth="yes"/>
    </contour>
    <contour>
      <point x="216" y="441"/>
      <point x="147" y="391"/>
      <point x="147" y="288" type="curve" smooth="yes"/>
      <point x="147" y="186"/>
      <point x="216" y="136"/>
      <point x="286" y="136" type="curve" smooth="yes"/>
      <point x="356" y="136"/>
      <point x="427" y="187"/>
      <point x="427" y="288" type="curve" smooth="yes"/>
      <point x="427" y="389"/>
      <point x="356" y="441"/>
      <point x="285" y="441" type="curve" smooth="yes"/>
    </contour>
  </outline>
</glyph>
<glyph name="semicolon" format="1">
  <advance width="601"/>
  <unicode hex="003B"/>
  <outline>
    <contour>
      <point x="222" y="439"/>
      <point x="167" y="369"/>
      <point x="167" y="285" type="curve" smooth="yes"/>
      <point x="167" y="199"/>
      <point x="229" y="130"/>
      <point x="312" y="130" type="curve"/>
      <point x="312" y="41"/>
      <point x="228" y="-29"/>
      <point x="140" y="-29" type="curve"/>
      <point x="140" y="-97" type="line"/>
      <point x="151" y="-100"/>
      <point x="170" y="-101"/>
      <point x="199" y="-101" type="curve" smooth="yes"/>
      <point x="338" y="-101"/>
      <point x="456" y="90"/>
      <point x="456" y="260" type="curve" smooth="yes"/>
      <point x="456" y="354"/>
      <point x="401" y="439"/>
      <point x="314" y="439" type="curve" smooth="yes"/>
    </contour>
    <contour>
      <point x="223" y="1233"/>
      <point x="172" y="1165"/>
      <point x="172" y="1079" type="curve" smooth="yes"/>
      <point x="172" y="995"/>
      <point x="228" y="925"/>
      <point x="312" y="925" type="curve" smooth="yes"/>
      <point x="400" y="925"/>
      <point x="452" y="991"/>
      <point x="452" y="1079" type="curve" smooth="yes"/>
      <point x="452" y="1163"/>
      <point x="394" y="1233"/>
      <point x="312" y="1233" type="curve" smooth="yes"/>
    </contour>
  </outline>
</glyph>
<glyph name="less" format="1">
  <advance width="974"/>
  <unicode hex="003C"/>
  <outline>
    <contour>
      <point x="127" y="832" type="line"/>
      <point x="127" y="667" type="line"/>
      <point x="823" y="234" type="line"/>
      <point x="823" y="462" type="line"/>
      <point x="304" y="758" type="line"/>
      <point x="823" y="1045" type="line"/>
      <point x="823" y="1281" type="line"/>
    </contour>
  </outline>
</glyph>
<glyph name="question" format="1">
  <advance width="883"/>
  <unicode hex="003F"/>
  <outline>
    <contour>
      <point x="302" y="1522"/>
      <point x="220" y="1500"/>
      <point x="126" y="1457" type="curve"/>
      <point x="147" y="1293" type="line"/>
      <point x="260" y="1321"/>
      <point x="327" y="1333"/>
      <point x="374" y="1333" type="curve" smooth="yes"/>
      <point x="493" y="1333"/>
      <point x="554" y="1259"/>
      <point x="554" y="1149" type="curve" smooth="yes"/>
      <point x="554" y="1054"/>
      <point x="529" y="1003"/>
      <point x="471" y="926" type="curve" smooth="yes"/>
      <point x="360" y="778"/>
      <point x="304" y="679"/>
      <point x="304" y="483" type="curve"/>
      <point x="407" y="483" type="line"/>
      <point x="415" y="593"/>
      <point x="476" y="697"/>
      <point x="581" y="803" type="curve" smooth="yes"/>
      <point x="695" y="918"/>
      <point x="751" y="1030"/>
      <point x="751" y="1161" type="curve" smooth="yes"/>
      <point x="751" y="1395"/>
      <point x="621" y="1522"/>
      <point x="381" y="1522" type="curve" smooth="yes"/>
    </contour>
    <contour>
      <point x="274" y="264"/>
      <point x="206" y="216"/>
      <point x="206" y="117" type="curve" smooth="yes"/>
      <point x="206" y="20"/>
      <point x="278" y="-31"/>
      <point x="349" y="-31" type="curve" smooth="yes"/>
      <point x="419" y="-31"/>
      <point x="487" y="17"/>
      <point x="487" y="117" type="curve" smooth="yes"/>
      <point x="487" y="213"/>
      <point x="414" y="264"/>
      <point x="343" y="264" type="curve" smooth="yes"/>
    </contour>
  </outline>
</glyph>
<glyph name="E" format="1">
  <advance width="1142"/>
  <unicode hex="0045"/>
  <outline>
    <contour>
      <point x="192" y="1490" type="line"/>
      <point x="192" y="0" type="line"/>
      <point x="1036" y="0" type="line"/>
      <point x="1056" y="153" type="line"/>
      <point x="395" y="153" type="line"/>
      <point x="395" y="695" type="line"/>
      <point x="952" y="695" type="line"/>
      <point x="952" y="857" type="line"/>
      <point x="395" y="857" type="line"/>
      <point x="395" y="1336" type="line"/>
      <point x="1047" y="1336" type="line"/>
      <point x="1027" y="1490" type="line"/>
    </contour>
    <contour>
      <point x="589" y="0" type="move" name="bottom"/>
    </contour>
    <contour>
      <point x="662" y="0" type="move" name="ogonek"/>
    </contour>
    <contour>
      <point x="587" y="1490" type="move" name="top"/>
    </contour>
    <contour>
      <point x="587" y="0" type="move" name="bot"/>
    </contour>
  </outline>
</glyph>
<glyph name="P" format="1">
  <advance width="1304"/>
  <unicode hex="0050"/>
  <outline>
    <contour>
      <point x="192" y="1490" type="line"/>
      <point x="192" y="0" type="line"/>
      <point x="394" y="0" type="line"/>
      <point x="394" y="521" type="line"/>
      <point x="791" y="521" type="line" smooth="yes"/>
      <point x="1041" y="521"/>
      <point x="1198" y="575"/>
      <point x="1198" y="1004" type="curve" smooth="yes"/>
      <point x="1198" y="1414"/>
      <point x="1085" y="1490"/>
      <point x="732" y="1490" type="curve" smooth="yes"/>
    </contour>
    <contour>
      <point x="970" y="1340"/>
      <point x="991" y="1281"/>
      <point x="996" y="1015" type="curve" smooth="yes"/>
      <point x="996" y="975"/>
      <point x="997" y="939"/>
      <point x="997" y="906" type="curve" smooth="yes"/>
      <point x="997" y="743"/>
      <point x="956" y="672"/>
      <point x="747" y="672" type="curve" smooth="yes"/>
      <point x="394" y="672" type="line"/>
      <point x="394" y="1340" type="line"/>
      <point x="788" y="1340" type="line" smooth="yes"/>
    </contour>
    <contour>
      <point x="658" y="0" type="move" name="bot"/>
    </contour>
    <contour>
      <point x="658" y="1490" type="move" name="top"/>
    </contour>
  </outline>
</glyph>
<glyph name="R" format="1">
  <advance width="1381"/>
  <unicode hex="0052"/>
  <outline>
    <contour>
      <point x="192" y="1490" type="line"/>
      <point x="192" y="0" type="line"/>
      <point x="394" y="0" type="line"/>
      <point x="394" y="641" type="line"/>
      <point x="703" y="641" type="line" smooth="yes"/>
      <point x="773" y="641"/>
      <point x="838" y="642"/>
      <point x="880" y="618" type="curve" smooth="yes"/>
      <point x="928" y="590"/>
      <point x="965" y="522"/>
      <point x="978" y="434" type="curve" smooth="yes"/>
      <point x="1040" y="0" type="line"/>
      <point x="1257" y="0" type="line"/>
      <point x="1180" y="465" type="line"/>
      <point x="1156" y="602"/>
      <point x="1102" y="688"/>
      <point x="974" y="714" type="curve"/>
      <point x="1132" y="740"/>
      <point x="1225" y="819"/>
      <point x="1225" y="1090" type="curve" smooth="yes"/>
      <point x="1225" y="1469"/>
      <point x="1035" y="1490"/>
      <point x="647" y="1490" type="curve" smooth="yes"/>
    </contour>
    <contour>
      <point x="1011" y="1337"/>
      <point x="1025" y="1293"/>
      <point x="1025" y="1140" type="curve" smooth="yes"/>
      <point x="1025" y="1027" type="line" smooth="yes"/>
      <point x="1025" y="857"/>
      <point x="996" y="800"/>
      <point x="743" y="800" type="curve" smooth="yes"/>
      <point x="394" y="800" type="line"/>
      <point x="394" y="1337" type="line"/>
      <point x="731" y="1337" type="line" smooth="yes"/>
    </contour>
    <contour>
      <point x="701" y="1490" type="move" name="top"/>
    </contour>
    <contour>
      <point x="694" y="0" type="move" name="bottom"/>
    </contour>
    <contour>
      <point x="701" y="0" type="move" name="bot"/>
    </contour>
  </outline>
</glyph>
<glyph name="S" format="1">
  <advance width="1302"/>
  <unicode hex="0053"/>
  <outline>
    <contour>
      <point x="264" y="1513"/>
      <point x="155" y="1442"/>
      <point x="155" y="1081" type="curve" smooth="yes"/>
      <point x="155" y="853"/>
      <point x="216" y="763"/>
      <point x="390" y="733" type="curve" smooth="yes"/>
      <point x="888" y="646" type="line" smooth="yes"/>
      <point x="949" y="635"/>
      <point x="959" y="571"/>
      <point x="960" y="404" type="curve" smooth="yes"/>
      <point x="960" y="383" type="line" smooth="yes"/>
      <point x="960" y="182"/>
      <point x="928" y="140"/>
      <point x="646" y="140" type="curve" smooth="yes"/>
      <point x="313" y="140"/>
      <point x="346" y="190"/>
      <point x="321" y="410" type="curve"/>
      <point x="136" y="380" type="line"/>
      <point x="149" y="69"/>
      <point x="174" y="-24"/>
      <point x="642" y="-24" type="curve" smooth="yes"/>
      <point x="1017" y="-24"/>
      <point x="1161" y="6"/>
      <point x="1161" y="437" type="curve" smooth="yes"/>
      <point x="1161" y="783"/>
      <point x="1043" y="814"/>
      <point x="789" y="857" type="curve" smooth="yes"/>
      <point x="431" y="918" type="line" smooth="yes"/>
      <point x="366" y="929"/>
      <point x="349" y="974"/>
      <point x="349" y="1026" type="curve" smooth="yes"/>
      <point x="349" y="1199" type="line" smooth="yes"/>
      <point x="349" y="1306"/>
      <point x="381" y="1344"/>
      <point x="668" y="1344" type="curve" smooth="yes"/>
      <point x="953" y="1344"/>
      <point x="931" y="1309"/>
      <point x="947" y="1129" type="curve"/>
      <point x="1125" y="1170" type="line"/>
      <point x="1125" y="1469"/>
      <point x="986" y="1513"/>
      <point x="636" y="1513" type="curve" smooth="yes"/>
    </contour>
    <contour>
      <point x="644" y="1490" type="move" name="top"/>
    </contour>
    <contour>
      <point x="614" y="0" type="move" name="bottom"/>
    </contour>
    <contour>
      <point x="644" y="0" type="move" name="bot"/>
    </contour>
  </outline>
</glyph>
<glyph name="W" format="1">
  <advance width="1915"/>
  <unicode hex="0057"/>
  <outline>
    <contour>
      <point x="1617" y="1490" type="line"/>
      <point x="1386" y="279" type="line"/>
      <point x="1067" y="1490" type="line"/>
      <point x="866" y="1490" type="line"/>
      <point x="546" y="279" type="line"/>
      <point x="312" y="1490" type="line"/>
      <point x="108" y="1490" type="line"/>
      <point x="426" y="0" type="line"/>
      <point x="642" y="0" type="line"/>
      <point x="968" y="1190" type="line"/>
      <point x="1269" y="0" type="line"/>
      <point x="1486" y="0" type="line"/>
      <point x="1807" y="1490" type="line"/>
    </contour>
    <contour>
      <point x="955" y="1490" type="move" name="top"/>
    </contour>
    <contour>
      <point x="955" y="0" type="move" name="bot"/>
    </contour>
  </outline>
</glyph>
<glyph name="backslash" format="1">
  <advance width="776"/>
  <unicode hex="005C"/>
  <outline>
    <contour>
      <point x="117" y="1516" type="line"/>
      <point x="470" y="-26" type="line"/>
      <point x="659" y="-26" type="line"/>
      <point x="316" y="1516" type="line"/>
    </contour>
  </outline>
</glyph>
<glyph name="a" format="1">
  <advance width="1127"/>
  <unicode hex="0061"/>
  <outline>
    <contour>
      <point x="327" y="1128"/>
      <point x="156" y="1104"/>
      <point x="156" y="877" type="curve" smooth="yes"/>
      <point x="156" y="862"/>
      <point x="156" y="846"/>
      <point x="158" y="830" type="curve"/>
      <point x="311" y="824" type="line"/>
      <point x="316" y="964"/>
      <point x="309" y="991"/>
      <point x="549" y="991" type="curve" smooth="yes"/>
      <point x="712" y="991"/>
      <point x="786" y="970"/>
      <point x="786" y="901" type="curve" smooth="yes"/>
      <point x="786" y="604" type="line"/>
      <point x="393" y="604"/>
      <point x="133" y="577"/>
      <point x="133" y="354" type="curve" smooth="yes"/>
      <point x="133" y="86"/>
      <point x="200" y="-15"/>
      <point x="466" y="-15" type="curve" smooth="yes"/>
      <point x="649" y="-15"/>
      <point x="752" y="10"/>
      <point x="795" y="157" type="curve"/>
      <point x="827" y="0" type="line"/>
      <point x="983" y="0" type="line"/>
      <point x="983" y="726" type="line" smooth="yes"/>
      <point x="983" y="1037"/>
      <point x="874" y="1128"/>
      <point x="562" y="1128" type="curve" smooth="yes"/>
    </contour>
    <contour>
      <point x="786" y="314" type="line" smooth="yes"/>
      <point x="786" y="203"/>
      <point x="719" y="122"/>
      <point x="493" y="122" type="curve" smooth="yes"/>
      <point x="317" y="122"/>
      <point x="315" y="155"/>
      <point x="315" y="341" type="curve" smooth="yes"/>
      <point x="315" y="354" type="line" smooth="yes"/>
      <point x="315" y="443"/>
      <point x="384" y="485"/>
      <point x="786" y="485" type="curve"/>
    </contour>
    <contour>
      <point x="541" y="1097" type="move" name="top"/>
    </contour>
    <contour>
      <point x="903" y="0" type="move" name="ogonek"/>
    </contour>
    <contour>
      <point x="566" y="0" type="move" name="bot"/>
    </contour>
  </outline>
</glyph>
<glyph name="b" format="1">
  <advance width="1194"/>
  <unicode hex="0062"/>
  <outline>
    <contour>
      <point x="160" y="1519" type="line"/>
      <point x="160" y="0" type="line"/>
      <point x="340" y="0" type="line"/>
      <point x="358" y="138" type="line"/>
      <point x="395" y="38"/>
      <point x="503" y="-15"/>
      <point x="677" y="-15" type="curve" smooth="yes"/>
      <point x="1044" y="-15"/>
      <point x="1062" y="167"/>
      <point x="1062" y="611" type="curve" smooth="yes"/>
      <point x="1062" y="932"/>
      <point x="1028" y="1128"/>
      <point x="661" y="1128" type="curve" smooth="yes"/>
      <point x="492" y="1128"/>
      <point x="401" y="1078"/>
      <point x="357" y="976" type="curve"/>
      <point x="357" y="1535" type="line"/>
    </contour>
    <contour>
      <point x="862" y="990"/>
      <point x="866" y="950"/>
      <point x="866" y="761" type="curve" smooth="yes"/>
      <point x="866" y="349" type="line" smooth="yes"/>
      <point x="866" y="139"/>
      <point x="827" y="122"/>
      <point x="615" y="122" type="curve" smooth="yes"/>
      <point x="427" y="122"/>
      <point x="357" y="158"/>
      <point x="357" y="269" type="curve" smooth="yes"/>
      <point x="357" y="773" type="line" smooth="yes"/>
      <point x="357" y="968"/>
      <point x="396" y="990"/>
      <point x="614" y="990" type="curve" smooth="yes"/>
    </contour>
    <contour>
      <point x="597" y="1097" type="move" name="top"/>
    </contour>
  </outline>
</glyph>
<glyph name="c" format="1">
  <advance width="1094"/>
  <unicode hex="0063"/>
  <outline>
    <contour>
      <point x="190" y="1128"/>
      <point x="132" y="1024"/>
      <point x="132" y="619" type="curve" smooth="yes"/>
      <point x="132" y="136"/>
      <point x="138" y="-15"/>
      <point x="576" y="-15" type="curve" smooth="yes"/>
      <point x="933" y="-15"/>
      <point x="972" y="54"/>
      <point x="993" y="337" type="curve"/>
      <point x="829" y="365" type="line"/>
      <point x="810" y="196"/>
      <point x="832" y="123"/>
      <point x="567" y="123" type="curve" smooth="yes"/>
      <point x="352" y="123"/>
      <point x="319" y="144"/>
      <point x="319" y="468" type="curve" smooth="yes"/>
      <point x="319" y="680" type="line" smooth="yes"/>
      <point x="319" y="822"/>
      <point x="342" y="959"/>
      <point x="407" y="974" type="curve" smooth="yes"/>
      <point x="436" y="980"/>
      <point x="494" y="989"/>
      <point x="585" y="989" type="curve" smooth="yes"/>
      <point x="801" y="989"/>
      <point x="799" y="963"/>
      <point x="810" y="893" type="curve" smooth="yes"/>
      <point x="831" y="754" type="line"/>
      <point x="993" y="781" type="line"/>
      <point x="979" y="1063"/>
      <point x="880" y="1128"/>
      <point x="575" y="1128" type="curve" smooth="yes"/>
    </contour>
    <contour>
      <point x="534" y="1097" type="move" name="top"/>
    </contour>
    <contour>
      <point x="534" y="0" type="move" name="bottom"/>
    </contour>
    <contour>
      <point x="550" y="0" type="move" name="bot"/>
    </contour>
  </outline>
</glyph>
<glyph name="d" format="1">
  <advance width="1193"/>
  <unicode hex="0064"/>
  <outline>
    <contour>
      <point x="836" y="1519" type="line"/>
      <point x="836" y="984" type="line"/>
      <point x="795" y="1083"/>
      <point x="706" y="1128"/>
      <point x="533" y="1128" type="curve" smooth="yes"/>
      <point x="175" y="1128"/>
      <point x="132" y="968"/>
      <point x="132" y="566" type="curve" smooth="yes"/>
      <point x="132" y="198"/>
      <point x="142" y="-15"/>
      <point x="515" y="-15" type="curve" smooth="yes"/>
      <point x="689" y="-15"/>
      <point x="794" y="38"/>
      <point x="834" y="138" type="curve"/>
      <point x="853" y="0" type="line"/>
      <point x="1033" y="0" type="line"/>
      <point x="1033" y="1535" type="line"/>
    </contour>
    <contour>
      <point x="778" y="990"/>
      <point x="836" y="954"/>
      <point x="836" y="838" type="curve" smooth="yes"/>
      <point x="836" y="255" type="line" smooth="yes"/>
      <point x="836" y="150"/>
      <point x="762" y="122"/>
      <point x="579" y="122" type="curve" smooth="yes"/>
      <point x="388" y="122"/>
      <point x="338" y="146"/>
      <point x="335" y="233" type="curve" smooth="yes"/>
      <point x="329" y="385"/>
      <point x="329" y="542"/>
      <point x="329" y="706" type="curve" smooth="yes"/>
      <point x="329" y="840"/>
      <point x="341" y="952"/>
      <point x="407" y="973" type="curve" smooth="yes"/>
      <point x="450" y="986"/>
      <point x="494" y="990"/>
      <point x="579" y="990" type="curve" smooth="yes"/>
    </contour>
    <contour>
      <point x="908" y="1319" type="move" name="mid"/>
    </contour>
    <contour>
      <point x="943" y="1097" type="move" name="caron.alt"/>
    </contour>
    <contour>
      <point x="599" y="1097" type="move" name="top"/>
    </contour>
  </outline>
</glyph>
<glyph name="e" format="1">
  <advance width="1136"/>
  <unicode hex="0065"/>
  <outline>
    <contour>
      <point x="158" y="1128"/>
      <point x="132" y="1022"/>
      <point x="132" y="534" type="curve" smooth="yes"/>
      <point x="132" y="147"/>
      <point x="147" y="-15"/>
      <point x="615" y="-15" type="curve" smooth="yes"/>
      <point x="912" y="-15"/>
      <point x="986" y="34"/>
      <point x="995" y="306" type="curve"/>
      <point x="842" y="334" type="line"/>
      <point x="824" y="206"/>
      <point x="870" y="122"/>
      <point x="598" y="122" type="curve" smooth="yes"/>
      <point x="398" y="122"/>
      <point x="341" y="142"/>
      <point x="336" y="232" type="curve" smooth="yes"/>
      <point x="330" y="336"/>
      <point x="329" y="442"/>
      <point x="328" y="550" type="curve"/>
      <point x="873" y="550" type="line" smooth="yes"/>
      <point x="922" y="550"/>
      <point x="973" y="559"/>
      <point x="1022" y="564" type="curve"/>
      <point x="1022" y="1030"/>
      <point x="984" y="1128"/>
      <point x="586" y="1128" type="curve" smooth="yes"/>
    </contour>
    <contour>
      <point x="755" y="991"/>
      <point x="809" y="971"/>
      <point x="815" y="889" type="curve" smooth="yes"/>
      <point x="821" y="813"/>
      <point x="824" y="735"/>
      <point x="825" y="655" type="curve"/>
      <point x="329" y="655" type="line"/>
      <point x="332" y="776"/>
      <point x="324" y="950"/>
      <point x="404" y="975" type="curve" smooth="yes"/>
      <point x="431" y="984"/>
      <point x="491" y="991"/>
      <point x="585" y="991" type="curve" smooth="yes"/>
    </contour>
    <contour>
      <point x="551" y="0" type="move" name="bottom"/>
    </contour>
    <contour>
      <point x="655" y="0" type="move" name="ogonek"/>
    </contour>
    <contour>
      <point x="551" y="1097" type="move" name="top"/>
    </contour>
    <contour>
      <point x="572" y="0" type="move" name="bot"/>
    </contour>
  </outline>
</glyph>
<glyph name="f" format="1">
  <advance width="715"/>
  <unicode hex="0066"/>
  <outline>
    <contour>
      <point x="253" y="1522"/>
      <point x="244" y="1416"/>
      <point x="244" y="1097" type="curve"/>
      <point x="115" y="1097" type="line"/>
      <point x="115" y="984" type="line"/>
      <point x="244" y="984" type="line"/>
      <point x="244" y="0" type="line"/>
      <point x="441" y="0" type="line"/>
      <point x="441" y="984" type="line"/>
      <point x="639" y="984" type="line"/>
      <point x="639" y="1097" type="line"/>
      <point x="441" y="1097" type="line"/>
      <point x="441" y="1155"/>
      <point x="440" y="1200"/>
      <point x="440" y="1235" type="curve" smooth="yes"/>
      <point x="440" y="1359"/>
      <point x="449" y="1365"/>
      <point x="518" y="1365" type="curve" smooth="yes"/>
      <point x="541" y="1365" type="line" smooth="yes"/>
      <point x="574" y="1365"/>
      <point x="609" y="1364"/>
      <point x="645" y="1362" type="curve"/>
      <point x="645" y="1505" type="line"/>
      <point x="582" y="1517"/>
      <point x="526" y="1522"/>
      <point x="475" y="1522" type="curve" smooth="yes"/>
    </contour>
    <contour>
      <point x="354" y="1367" type="move" name="top"/>
    </contour>
  </outline>
</glyph>
<glyph name="h" format="1">
  <advance width="1182"/>
  <unicode hex="0068"/>
  <outline>
    <contour>
      <point x="160" y="1486" type="line"/>
      <point x="160" y="0" type="line"/>
      <point x="358" y="0" type="line"/>
      <point x="358" y="572" type="line" smooth="yes"/>
      <point x="358" y="684"/>
      <point x="364" y="793"/>
      <point x="372" y="896" type="curve" smooth="yes"/>
      <point x="378" y="969"/>
      <point x="489" y="990"/>
      <point x="589" y="990" type="curve" smooth="yes"/>
      <point x="813" y="990"/>
      <point x="841" y="952"/>
      <point x="841" y="830" type="curve" smooth="yes"/>
      <point x="841" y="787"/>
      <point x="838" y="733"/>
      <point x="838" y="666" type="curve" smooth="yes"/>
      <point x="838" y="0" type="line"/>
      <point x="1035" y="0" type="line"/>
      <point x="1035" y="629" type="line" smooth="yes"/>
      <point x="1035" y="674"/>
      <point x="1036" y="717"/>
      <point x="1036" y="756" type="curve" smooth="yes"/>
      <point x="1036" y="990"/>
      <point x="1010" y="1128"/>
      <point x="656" y="1128" type="curve" smooth="yes"/>
      <point x="507" y="1128"/>
      <point x="406" y="1090"/>
      <point x="358" y="1014" type="curve"/>
      <point x="358" y="1502" type="line"/>
    </contour>
    <contour>
      <point x="590" y="549" type="move" name="center"/>
    </contour>
    <contour>
      <point x="674" y="1299" type="move" name="top"/>
    </contour>
    <contour>
      <point x="592" y="1097" type="move" name="mid"/>
    </contour>
    <contour>
      <point x="592" y="0" type="move" name="bot"/>
    </contour>
  </outline>
</glyph>
<glyph name="m" format="1">
  <advance width="1762"/>
  <unicode hex="006D"/>
  <outline>
    <contour>
      <point x="1097" y="1128"/>
      <point x="995" y="1075"/>
      <point x="942" y="972" type="curve"/>
      <point x="900" y="1084"/>
      <point x="811" y="1126"/>
      <point x="664" y="1126" type="curve" smooth="yes"/>
      <point x="518" y="1126"/>
      <point x="415" y="1090"/>
      <point x="359" y="977" type="curve"/>
      <point x="340" y="1097" type="line"/>
      <point x="160" y="1097" type="line"/>
      <point x="160" y="0" type="line"/>
      <point x="357" y="0" type="line"/>
      <point x="357" y="605" type="line" smooth="yes"/>
      <point x="357" y="707"/>
      <point x="363" y="805"/>
      <point x="370" y="897" type="curve" smooth="yes"/>
      <point x="376" y="970"/>
      <point x="482" y="990"/>
      <point x="570" y="990" type="curve" smooth="yes"/>
      <point x="788" y="990"/>
      <point x="793" y="936"/>
      <point x="793" y="730" type="curve" smooth="yes"/>
      <point x="793" y="0" type="line"/>
      <point x="990" y="0" type="line"/>
      <point x="990" y="614" type="line" smooth="yes"/>
      <point x="990" y="680"/>
      <point x="987" y="736"/>
      <point x="987" y="784" type="curve" smooth="yes"/>
      <point x="987" y="926"/>
      <point x="1015" y="990"/>
      <point x="1239" y="990" type="curve" smooth="yes"/>
      <point x="1409" y="990"/>
      <point x="1422" y="918"/>
      <point x="1422" y="838" type="curve" smooth="yes"/>
      <point x="1422" y="779"/>
      <point x="1419" y="727"/>
      <point x="1419" y="666" type="curve" smooth="yes"/>
      <point x="1419" y="0" type="line"/>
      <point x="1616" y="0" type="line"/>
      <point x="1616" y="673" type="line" smooth="yes"/>
      <point x="1616" y="1026"/>
      <point x="1560" y="1128"/>
      <point x="1258" y="1128" type="curve" smooth="yes"/>
    </contour>
    <contour>
      <point x="885" y="0" type="move" name="bot"/>
    </contour>
    <contour>
      <point x="885" y="1097" type="move" name="top"/>
    </contour>
  </outline>
</glyph>
<glyph name="n" format="1">
  <advance width="1174"/>
  <unicode hex="006E"/>
  <outline>
    <contour>
      <point x="540" y="1128"/>
      <point x="396" y="1091"/>
      <point x="359" y="974" type="curve"/>
      <point x="340" y="1097" type="line"/>
      <point x="160" y="1097" type="line"/>
      <point x="160" y="0" type="line"/>
      <point x="357" y="0" type="line"/>
      <point x="357" y="0"/>
      <point x="357" y="780"/>
      <point x="357" y="780" type="curve" smooth="yes"/>
      <point x="357" y="924"/>
      <point x="397" y="990"/>
      <point x="653" y="990" type="curve" smooth="yes"/>
      <point x="820" y="990"/>
      <point x="831" y="971"/>
      <point x="831" y="664" type="curve" smooth="yes"/>
      <point x="831" y="0" type="line"/>
      <point x="1028" y="0" type="line"/>
      <point x="1028" y="609" type="line" smooth="yes"/>
      <point x="1028" y="974"/>
      <point x="994" y="1128"/>
      <point x="686" y="1128" type="curve" smooth="yes"/>
    </contour>
    <contour>
      <point x="590" y="1097" type="move" name="top"/>
    </contour>
    <contour>
      <point x="590" y="0" type="move" name="bottom"/>
    </contour>
    <contour>
      <point x="591" y="0" type="move" name="bot"/>
    </contour>
  </outline>
</glyph>
<glyph name="o" format="1">
  <advance width="1188"/>
  <unicode hex="006F"/>
  <outline>
    <contour>
      <point x="178" y="1128"/>
      <point x="132" y="1040"/>
      <point x="132" y="557" type="curve" smooth="yes"/>
      <point x="132" y="106"/>
      <point x="158" y="-15"/>
      <point x="593" y="-15" type="curve" smooth="yes"/>
      <point x="1029" y="-15"/>
      <point x="1056" y="105"/>
      <point x="1056" y="557" type="curve" smooth="yes"/>
      <point x="1056" y="1040"/>
      <point x="1010" y="1128"/>
      <point x="594" y="1128" type="curve" smooth="yes"/>
    </contour>
    <contour>
      <point x="713" y="989"/>
      <point x="849" y="989"/>
      <point x="849" y="895" type="curve"/>
      <point x="859" y="557" type="line"/>
      <point x="848" y="215" type="line"/>
      <point x="848" y="140"/>
      <point x="772" y="123"/>
      <point x="595" y="123" type="curve" smooth="yes"/>
      <point x="418" y="123"/>
      <point x="340" y="142"/>
      <point x="340" y="215" type="curve"/>
      <point x="329" y="557" type="line"/>
      <point x="339" y="895" type="line"/>
      <point x="339" y="989"/>
      <point x="475" y="989"/>
      <point x="594" y="989" type="curve" smooth="yes"/>
    </contour>
    <contour>
      <point x="595" y="1097" type="move" name="top"/>
    </contour>
    <contour>
      <point x="594" y="0" type="move" name="bot"/>
    </contour>
    <contour>
      <point x="672" y="0" type="move" name="ogonek"/>
    </contour>
  </outline>
</glyph>
<glyph name="p" format="1">
  <advance width="1192"/>
  <unicode hex="0070"/>
  <outline>
    <contour>
      <point x="503" y="1128"/>
      <point x="398" y="1076"/>
      <point x="358" y="976" type="curve"/>
      <point x="339" y="1097" type="line"/>
      <point x="160" y="1097" type="line"/>
      <point x="160" y="-387" type="line"/>
      <point x="357" y="-372" type="line"/>
      <point x="357" y="103" type="line"/>
      <point x="382" y="26"/>
      <point x="486" y="-15"/>
      <point x="659" y="-15" type="curve" smooth="yes"/>
      <point x="1018" y="-15"/>
      <point x="1060" y="145"/>
      <point x="1060" y="541" type="curve" smooth="yes"/>
      <point x="1060" y="962"/>
      <point x="1032" y="1128"/>
      <point x="678" y="1128" type="curve" smooth="yes"/>
    </contour>
    <contour>
      <point x="806" y="990"/>
      <point x="852" y="964"/>
      <point x="857" y="872" type="curve" smooth="yes"/>
      <point x="862" y="786"/>
      <point x="862" y="697"/>
      <point x="863" y="606" type="curve" smooth="yes"/>
      <point x="863" y="553"/>
      <point x="865" y="484"/>
      <point x="865" y="415" type="curve" smooth="yes"/>
      <point x="865" y="156"/>
      <point x="859" y="122"/>
      <point x="613" y="122" type="curve" smooth="yes"/>
      <point x="395" y="122"/>
      <point x="353" y="181"/>
      <point x="353" y="294" type="curve" smooth="yes"/>
      <point x="353" y="693" type="line" smooth="yes"/>
      <point x="353" y="946"/>
      <point x="359" y="990"/>
      <point x="613" y="990" type="curve" smooth="yes"/>
    </contour>
    <contour>
      <point x="596" y="0" type="move" name="bot"/>
    </contour>
    <contour>
      <point x="596" y="1097" type="move" name="top"/>
    </contour>
  </outline>
</glyph>
<glyph name="q" format="1">
  <advance width="1192"/>
  <unicode hex="0071"/>
  <outline>
    <contour>
      <point x="168" y="1128"/>
      <point x="132" y="969"/>
      <point x="132" y="557" type="curve" smooth="yes"/>
      <point x="132" y="209"/>
      <point x="140" y="-15"/>
      <point x="531" y="-15" type="curve" smooth="yes"/>
      <point x="705" y="-15"/>
      <point x="806" y="25"/>
      <point x="835" y="103" type="curve"/>
      <point x="835" y="-387" type="line"/>
      <point x="1032" y="-372" type="line"/>
      <point x="1032" y="1097" type="line"/>
      <point x="852" y="1097" type="line"/>
      <point x="833" y="976" type="line"/>
      <point x="797" y="1075"/>
      <point x="688" y="1128"/>
      <point x="515" y="1128" type="curve" smooth="yes"/>
    </contour>
    <contour>
      <point x="764" y="990"/>
      <point x="835" y="954"/>
      <point x="835" y="844" type="curve" smooth="yes"/>
      <point x="835" y="252" type="line" smooth="yes"/>
      <point x="835" y="151"/>
      <point x="774" y="122"/>
      <point x="579" y="122" type="curve" smooth="yes"/>
      <point x="382" y="122"/>
      <point x="340" y="139"/>
      <point x="335" y="233" type="curve" smooth="yes"/>
      <point x="327" y="377"/>
      <point x="326" y="506"/>
      <point x="326" y="698" type="curve" smooth="yes"/>
      <point x="326" y="949"/>
      <point x="338" y="990"/>
      <point x="577" y="990" type="curve" smooth="yes"/>
    </contour>
  </outline>
</glyph>
<glyph name="r" format="1">
  <advance width="739"/>
  <unicode hex="0072"/>
  <outline>
    <contour>
      <point x="490" y="1125"/>
      <point x="404" y="1069"/>
      <point x="363" y="974" type="curve"/>
      <point x="343" y="1097" type="line"/>
      <point x="164" y="1097" type="line"/>
      <point x="164" y="0" type="line"/>
      <point x="361" y="0" type="line"/>
      <point x="361" y="471" type="line" smooth="yes"/>
      <point x="361" y="541"/>
      <point x="354" y="624"/>
      <point x="354" y="704" type="curve" smooth="yes"/>
      <point x="354" y="883"/>
      <point x="381" y="960"/>
      <point x="573" y="960" type="curve" smooth="yes"/>
      <point x="599" y="960"/>
      <point x="622" y="958"/>
      <point x="645" y="955" type="curve"/>
      <point x="653" y="1122" type="line"/>
      <point x="638" y="1124"/>
      <point x="623" y="1125"/>
      <point x="608" y="1125" type="curve" smooth="yes"/>
    </contour>
    <contour>
      <point x="367" y="1097" type="move" name="top"/>
    </contour>
    <contour>
      <point x="367" y="0" type="move" name="bottom"/>
    </contour>
    <contour>
      <point x="374" y="0" type="move" name="bot"/>
    </contour>
  </outline>
</glyph>
<glyph name="s" format="1">
  <advance width="1034"/>
  <unicode hex="0073"/>
  <outline>
    <contour>
      <point x="241" y="1128"/>
      <point x="124" y="1076"/>
      <point x="124" y="838" type="curve" smooth="yes"/>
      <point x="124" y="567"/>
      <point x="237" y="536"/>
      <point x="498" y="505" type="curve" smooth="yes"/>
      <point x="627" y="490"/>
      <point x="770" y="502"/>
      <point x="770" y="383" type="curve" smooth="yes"/>
      <point x="770" y="376"/>
      <point x="770" y="369"/>
      <point x="770" y="363" type="curve" smooth="yes"/>
      <point x="770" y="179"/>
      <point x="766" y="122"/>
      <point x="552" y="122" type="curve" smooth="yes"/>
      <point x="289" y="122"/>
      <point x="290" y="130"/>
      <point x="275" y="327" type="curve"/>
      <point x="120" y="287" type="line"/>
      <point x="120" y="-5"/>
      <point x="288" y="-15"/>
      <point x="566" y="-15" type="curve" smooth="yes"/>
      <point x="838" y="-15"/>
      <point x="950" y="49"/>
      <point x="950" y="304" type="curve" smooth="yes"/>
      <point x="950" y="594"/>
      <point x="862" y="618"/>
      <point x="582" y="653" type="curve" smooth="yes"/>
      <point x="342" y="683"/>
      <point x="304" y="685"/>
      <point x="304" y="780" type="curve" smooth="yes"/>
      <point x="304" y="882" type="line" smooth="yes"/>
      <point x="304" y="954"/>
      <point x="343" y="991"/>
      <point x="523" y="991" type="curve" smooth="yes"/>
      <point x="737" y="991"/>
      <point x="758" y="983"/>
      <point x="771" y="839" type="curve"/>
      <point x="905" y="880" type="line"/>
      <point x="905" y="1114"/>
      <point x="759" y="1128"/>
      <point x="530" y="1128" type="curve" smooth="yes"/>
    </contour>
    <contour>
      <point x="493" y="1097" type="move" name="top"/>
    </contour>
    <contour>
      <point x="493" y="0" type="move" name="bottom"/>
    </contour>
    <contour>
      <point x="508" y="0" type="move" name="bot"/>
    </contour>
  </outline>
</glyph>
<glyph name="t" format="1">
  <advance width="793"/>
  <unicode hex="0074"/>
  <outline>
    <contour>
      <point x="248" y="1409" type="line"/>
      <point x="248" y="1097" type="line"/>
      <point x="79" y="1097" type="line"/>
      <point x="79" y="985" type="line"/>
      <point x="248" y="985" type="line"/>
      <point x="248" y="238" type="line" smooth="yes"/>
      <point x="248" y="-34"/>
      <point x="438" y="-33"/>
      <point x="705" y="-1" type="curve"/>
      <point x="709" y="139" type="line"/>
      <point x="507" y="115"/>
      <point x="444" y="129"/>
      <point x="444" y="235" type="curve" smooth="yes"/>
      <point x="444" y="985" type="line"/>
      <point x="666" y="985" type="line"/>
      <point x="666" y="1097" type="line"/>
      <point x="444" y="1097" type="line"/>
      <point x="444" y="1425" type="line"/>
    </contour>
    <contour>
      <point x="307" y="1257" type="move" name="caron.alt"/>
    </contour>
    <contour>
      <point x="375" y="671" type="move" name="mid"/>
    </contour>
    <contour>
      <point x="351" y="1249" type="move" name="top"/>
    </contour>
    <contour>
      <point x="443" y="0" type="move" name="bot"/>
    </contour>
  </outline>
</glyph>
<glyph name="y" format="1">
  <advance width="1026"/>
  <unicode hex="0079"/>
  <outline>
    <contour>
      <point x="805" y="1097" type="line"/>
      <point x="650" y="571" type="line" smooth="yes"/>
      <point x="543" y="217" type="line"/>
      <point x="439" y="524" type="line" smooth="yes"/>
      <point x="237" y="1097" type="line"/>
      <point x="42" y="1097" type="line"/>
      <point x="462" y="8" type="line"/>
      <point x="420" y="-169"/>
      <point x="412" y="-226"/>
      <point x="272" y="-226" type="curve" smooth="yes"/>
      <point x="240" y="-226"/>
      <point x="200" y="-223"/>
      <point x="152" y="-218" type="curve"/>
      <point x="138" y="-349" type="line"/>
      <point x="205" y="-355"/>
      <point x="261" y="-359"/>
      <point x="309" y="-359" type="curve" smooth="yes"/>
      <point x="484" y="-359"/>
      <point x="550" y="-301"/>
      <point x="632" y="-41" type="curve" smooth="yes"/>
      <point x="994" y="1097" type="line"/>
    </contour>
    <contour>
      <point x="526" y="1097" type="move" name="top"/>
    </contour>
    <contour>
      <point x="518" y="0" type="move" name="bot"/>
    </contour>
  </outline>
</glyph>
<glyph name="cent" format="1">
  <advance width="1357"/>
  <unicode hex="00A2"/>
  <outline>
    <contour>
      <point x="672" y="1685" type="line"/>
      <point x="672" y="-171" type="line"/>
      <point x="745" y="-171" type="line"/>
      <point x="745" y="1685" type="line"/>
    </contour>
    <component base="C" xOffset="27" yOffset="132" xScale="0.96" yScale="0.82"/>
  </outline>
</glyph>
<glyph name="sterling" format="1">
  <advance width="1497"/>
  <unicode hex="00A3"/>
  <outline>
    <contour>
      <point x="481" y="1542"/>
      <point x="304" y="1488"/>
      <point x="304" y="1112" type="curve" smooth="yes"/>
      <point x="304" y="1023"/>
      <point x="313" y="931"/>
      <point x="320" y="841" type="curve"/>
      <point x="172" y="841" type="line"/>
      <point x="172" y="702" type="line"/>
      <point x="324" y="702" type="line"/>
      <point x="323" y="578"/>
      <point x="322" y="420"/>
      <point x="319" y="341" type="curve" smooth="yes"/>
      <point x="315" y="245"/>
      <point x="297" y="229"/>
      <point x="170" y="220" type="curve"/>
      <point x="170" y="0" type="line"/>
      <point x="305" y="0"/>
      <point x="382" y="46"/>
      <point x="398" y="139" type="curve"/>
      <point x="428" y="6"/>
      <point x="608" y="0"/>
      <point x="857" y="0" type="curve" smooth="yes"/>
      <point x="1284" y="0"/>
      <point x="1308" y="43"/>
      <point x="1327" y="437" type="curve"/>
      <point x="1172" y="465" type="line"/>
      <point x="1157" y="238" type="line" smooth="yes"/>
      <point x="1152" y="169"/>
      <point x="1033" y="161"/>
      <point x="877" y="161" type="curve" smooth="yes"/>
      <point x="651" y="161"/>
      <point x="516" y="176"/>
      <point x="500" y="227" type="curve"/>
      <point x="515" y="379"/>
      <point x="522" y="546"/>
      <point x="524" y="701" type="curve"/>
      <point x="997" y="701" type="line"/>
      <point x="997" y="840" type="line"/>
      <point x="521" y="840" type="line"/>
      <point x="515" y="963"/>
      <point x="504" y="1107"/>
      <point x="504" y="1225" type="curve" smooth="yes"/>
      <point x="504" y="1325"/>
      <point x="530" y="1371"/>
      <point x="874" y="1371" type="curve" smooth="yes"/>
      <point x="1020" y="1371"/>
      <point x="1089" y="1362"/>
      <point x="1097" y="1289" type="curve" smooth="yes"/>
      <point x="1105" y="1217"/>
      <point x="1106" y="1126"/>
      <point x="1109" y="1054" type="curve"/>
      <point x="1286" y="1077" type="line"/>
      <point x="1266" y="1434"/>
      <point x="1260" y="1542"/>
      <point x="850" y="1542" type="curve" smooth="yes"/>
    </contour>
  </outline>
</glyph>
<glyph name="currency" format="1">
  <advance width="1178"/>
  <unicode hex="00A4"/>
  <outline>
    <contour>
      <point x="150" y="1241" type="line"/>
      <point x="288" y="1070" type="line"/>
      <point x="210" y="996"/>
      <point x="171" y="894"/>
      <point x="171" y="764" type="curve" smooth="yes"/>
      <point x="171" y="633"/>
      <point x="210" y="531"/>
      <point x="288" y="457" type="curve"/>
      <point x="149" y="287" type="line"/>
      <point x="212" y="218" type="line"/>
      <point x="362" y="398" type="line"/>
      <point x="421" y="365"/>
      <point x="497" y="349"/>
      <point x="590" y="349" type="curve" smooth="yes"/>
      <point x="679" y="349"/>
      <point x="754" y="365"/>
      <point x="815" y="397" type="curve"/>
      <point x="965" y="218" type="line"/>
      <point x="1029" y="287" type="line"/>
      <point x="890" y="457" type="line"/>
      <point x="970" y="533"/>
      <point x="1010" y="636"/>
      <point x="1010" y="765" type="curve" smooth="yes"/>
      <point x="1010" y="894"/>
      <point x="970" y="996"/>
      <point x="890" y="1071" type="curve"/>
      <point x="1028" y="1240" type="line"/>
      <point x="964" y="1310" type="line"/>
      <point x="812" y="1133" type="line"/>
      <point x="753" y="1170"/>
      <point x="678" y="1189"/>
      <point x="588" y="1189" type="curve" smooth="yes"/>
      <point x="497" y="1189"/>
      <point x="422" y="1169"/>
      <point x="363" y="1130" type="curve"/>
      <point x="213" y="1311" type="line"/>
    </contour>
    <contour>
      <point x="813" y="1098"/>
      <point x="903" y="989"/>
      <point x="903" y="772" type="curve" smooth="yes"/>
      <point x="903" y="555"/>
      <point x="799" y="447"/>
      <point x="590" y="447" type="curve" smooth="yes"/>
      <point x="370" y="447"/>
      <point x="276" y="552"/>
      <point x="276" y="773" type="curve" smooth="yes"/>
      <point x="276" y="990"/>
      <point x="381" y="1098"/>
      <point x="590" y="1098" type="curve" smooth="yes"/>
    </contour>
  </outline>
</glyph>
<glyph name="dieresis" format="1">
  <advance width="982"/>
  <unicode hex="00A8"/>
  <outline>
    <contour>
      <point x="197" y="1490"/>
      <point x="145" y="1451"/>
      <point x="145" y="1373" type="curve" smooth="yes"/>
      <point x="145" y="1293"/>
      <point x="196" y="1255"/>
      <point x="266" y="1255" type="curve" smooth="yes"/>
      <point x="337" y="1255"/>
      <point x="386" y="1293"/>
      <point x="386" y="1373" type="curve" smooth="yes"/>
      <point x="386" y="1452"/>
      <point x="337" y="1490"/>
      <point x="266" y="1490" type="curve" smooth="yes"/>
    </contour>
    <contour>
      <point x="652" y="1490"/>
      <point x="600" y="1451"/>
      <point x="600" y="1373" type="curve" smooth="yes"/>
      <point x="600" y="1293"/>
      <point x="651" y="1255"/>
      <point x="721" y="1255" type="curve" smooth="yes"/>
      <point x="792" y="1255"/>
      <point x="841" y="1293"/>
      <point x="841" y="1373" type="curve" smooth="yes"/>
      <point x="841" y="1452"/>
      <point x="792" y="1490"/>
      <point x="721" y="1490" type="curve" smooth="yes"/>
    </contour>
    <contour>
      <point x="491" y="1097" type="move" name="_top"/>
    </contour>
  </outline>
</glyph>
<glyph name="copyright" format="1">
  <advance width="1826"/>
  <unicode hex="00A9"/>
  <outline>
    <contour>
      <point x="478" y="1628"/>
      <point x="42" y="1335"/>
      <point x="42" y="762" type="curve" smooth="yes"/>
      <point x="42" y="200"/>
      <point x="466" y="-96"/>
      <point x="927" y="-96" type="curve" smooth="yes"/>
      <point x="1366" y="-96"/>
      <point x="1790" y="206"/>
      <point x="1790" y="760" type="curve" smooth="yes"/>
      <point x="1790" y="1330"/>
      <point x="1361" y="1628"/>
      <point x="917" y="1628" type="curve" smooth="yes"/>
    </contour>
    <contour>
      <point x="1288" y="1522"/>
      <point x="1663" y="1267"/>
      <point x="1663" y="759" type="curve" smooth="yes"/>
      <point x="1663" y="268"/>
      <point x="1302" y="8"/>
      <point x="905" y="8" type="curve" smooth="yes"/>
      <point x="532" y="8"/>
      <point x="169" y="270"/>
      <point x="169" y="759" type="curve" smooth="yes"/>
      <point x="169" y="1268"/>
      <point x="541" y="1522"/>
      <point x="915" y="1522" type="curve" smooth="yes"/>
    </contour>
    <contour>
      <point x="559" y="1327"/>
      <point x="513" y="1214"/>
      <point x="513" y="865" type="curve" smooth="yes"/>
      <point x="513" y="332"/>
      <point x="531" y="226"/>
      <point x="887" y="226" type="curve" smooth="yes"/>
      <point x="1273" y="226"/>
      <point x="1300" y="283"/>
      <point x="1300" y="644" type="curve"/>
      <point x="1174" y="644" type="line"/>
      <point x="1162" y="395"/>
      <point x="1209" y="341"/>
      <point x="924" y="341" type="curve" smooth="yes"/>
      <point x="687" y="341"/>
      <point x="651" y="370"/>
      <point x="651" y="515" type="curve" smooth="yes"/>
      <point x="651" y="580"/>
      <point x="658" y="667"/>
      <point x="658" y="785" type="curve" smooth="yes"/>
      <point x="658" y="1064" type="line" smooth="yes"/>
      <point x="658" y="1187"/>
      <point x="669" y="1212"/>
      <point x="924" y="1212" type="curve" smooth="yes"/>
      <point x="1158" y="1212"/>
      <point x="1172" y="1175"/>
      <point x="1172" y="1048" type="curve" smooth="yes"/>
      <point x="1172" y="992" type="line" smooth="yes"/>
      <point x="1172" y="967"/>
      <point x="1172" y="939"/>
      <point x="1174" y="909" type="curve"/>
      <point x="1300" y="909" type="line"/>
      <point x="1300" y="1285"/>
      <point x="1238" y="1327"/>
      <point x="897" y="1327" type="curve" smooth="yes"/>
    </contour>
  </outline>
</glyph>
<glyph name="ordfeminine" format="1">
  <advance width="984"/>
  <unicode hex="00AA"/>
  <outline>
    <contour>
      <point x="312" y="1490"/>
      <point x="191" y="1469"/>
      <point x="191" y="1274" type="curve" smooth="yes"/>
      <point x="191" y="1265"/>
      <point x="191" y="1256"/>
      <point x="192" y="1246" type="curve"/>
      <point x="315" y="1242" type="line"/>
      <point x="314" y="1256"/>
      <point x="314" y="1269"/>
      <point x="314" y="1280" type="curve" smooth="yes"/>
      <point x="314" y="1350"/>
      <point x="336" y="1378"/>
      <point x="498" y="1378" type="curve" smooth="yes"/>
      <point x="668" y="1378"/>
      <point x="674" y="1355"/>
      <point x="674" y="1268" type="curve" smooth="yes"/>
      <point x="674" y="1066" type="line"/>
      <point x="652" y="1066"/>
      <point x="627" y="1067"/>
      <point x="603" y="1067" type="curve" smooth="yes"/>
      <point x="326" y="1067"/>
      <point x="139" y="1022"/>
      <point x="139" y="864" type="curve" smooth="yes"/>
      <point x="139" y="646"/>
      <point x="193" y="564"/>
      <point x="409" y="564" type="curve" smooth="yes"/>
      <point x="557" y="564"/>
      <point x="647" y="583"/>
      <point x="682" y="704" type="curve"/>
      <point x="707" y="576" type="line"/>
      <point x="835" y="576" type="line"/>
      <point x="835" y="1171" type="line" smooth="yes"/>
      <point x="835" y="1424"/>
      <point x="754" y="1490"/>
      <point x="508" y="1490" type="curve" smooth="yes"/>
    </contour>
    <contour>
      <point x="674" y="871" type="line" smooth="yes"/>
      <point x="670" y="760"/>
      <point x="648" y="675"/>
      <point x="432" y="675" type="curve" smooth="yes"/>
      <point x="287" y="675"/>
      <point x="287" y="704"/>
      <point x="287" y="859" type="curve" smooth="yes"/>
      <point x="287" y="938"/>
      <point x="347" y="964"/>
      <point x="674" y="968" type="curve"/>
    </contour>
  </outline>
</glyph>
<glyph name="uni00AD" format="1">
  <advance width="1050"/>
  <unicode hex="00AD"/>
  <outline>
    <contour>
      <point x="134" y="728" type="line"/>
      <point x="134" y="549" type="line"/>
      <point x="920" y="549" type="line"/>
      <point x="920" y="728" type="line"/>
    </contour>
  </outline>
</glyph>
<glyph name="registered" format="1">
  <advance width="1826"/>
  <unicode hex="00AE"/>
  <outline>
    <contour>
      <point x="587" y="1288" type="line"/>
      <point x="587" y="267" type="line"/>
      <point x="715" y="267" type="line"/>
      <point x="714" y="734" type="line"/>
      <point x="948" y="734" type="line" smooth="yes"/>
      <point x="1103" y="734"/>
      <point x="1139" y="694"/>
      <point x="1137" y="518" type="curve" smooth="yes"/>
      <point x="1137" y="268" type="line"/>
      <point x="1265" y="268" type="line"/>
      <point x="1265" y="609" type="line" smooth="yes"/>
      <point x="1265" y="718"/>
      <point x="1217" y="779"/>
      <point x="1103" y="788" type="curve"/>
      <point x="1216" y="806"/>
      <point x="1273" y="874"/>
      <point x="1273" y="1021" type="curve" smooth="yes"/>
      <point x="1273" y="1248"/>
      <point x="1185" y="1288"/>
      <point x="911" y="1288" type="curve" smooth="yes"/>
    </contour>
    <contour>
      <point x="714" y="832" type="line"/>
      <point x="714" y="1183" type="line"/>
      <point x="945" y="1183" type="line" smooth="yes"/>
      <point x="1078" y="1183"/>
      <point x="1136" y="1176"/>
      <point x="1136" y="1007" type="curve" smooth="yes"/>
      <point x="1136" y="854"/>
      <point x="1102" y="832"/>
      <point x="911" y="832" type="curve" smooth="yes"/>
    </contour>
    <contour>
      <point x="478" y="1628"/>
      <point x="42" y="1335"/>
      <point x="42" y="762" type="curve" smooth="yes"/>
      <point x="42" y="200"/>
      <point x="466" y="-96"/>
      <point x="927" y="-96" type="curve" smooth="yes"/>
      <point x="1366" y="-96"/>
      <point x="1790" y="206"/>
      <point x="1790" y="760" type="curve" smooth="yes"/>
      <point x="1790" y="1330"/>
      <point x="1361" y="1628"/>
      <point x="917" y="1628" type="curve" smooth="yes"/>
    </contour>
    <contour>
      <point x="1288" y="1522"/>
      <point x="1663" y="1267"/>
      <point x="1663" y="759" type="curve" smooth="yes"/>
      <point x="1663" y="268"/>
      <point x="1302" y="8"/>
      <point x="905" y="8" type="curve" smooth="yes"/>
      <point x="532" y="8"/>
      <point x="169" y="270"/>
      <point x="169" y="759" type="curve" smooth="yes"/>
      <point x="169" y="1268"/>
      <point x="541" y="1522"/>
      <point x="915" y="1522" type="curve" smooth="yes"/>
    </contour>
  </outline>
</glyph>
<glyph name="degree" format="1">
  <advance width="866"/>
  <unicode hex="00B0"/>
  <outline>
    <contour>
      <point x="248" y="1597"/>
      <point x="130" y="1491"/>
      <point x="130" y="1322" type="curve" smooth="yes"/>
      <point x="130" y="1152"/>
      <point x="248" y="1046"/>
      <point x="435" y="1046" type="curve" smooth="yes"/>
      <point x="622" y="1046"/>
      <point x="740" y="1152"/>
      <point x="740" y="1322" type="curve" smooth="yes"/>
      <point x="740" y="1491"/>
      <point x="622" y="1597"/>
      <point x="435" y="1597" type="curve" smooth="yes"/>
    </contour>
    <contour>
      <point x="533" y="1486"/>
      <point x="594" y="1422"/>
      <point x="594" y="1321" type="curve" smooth="yes"/>
      <point x="594" y="1219"/>
      <point x="533" y="1155"/>
      <point x="435" y="1155" type="curve" smooth="yes"/>
      <point x="339" y="1155"/>
      <point x="278" y="1219"/>
      <point x="278" y="1321" type="curve" smooth="yes"/>
      <point x="278" y="1422"/>
      <point x="339" y="1486"/>
      <point x="435" y="1486" type="curve" smooth="yes"/>
    </contour>
  </outline>
</glyph>
<glyph name="periodcentered" format="1">
  <advance width="531"/>
  <unicode hex="00B7"/>
  <outline>
    <contour>
      <point x="303" y="836"/>
      <point x="251" y="771"/>
      <point x="251" y="682" type="curve" smooth="yes"/>
      <point x="251" y="596"/>
      <point x="310" y="528"/>
      <point x="391" y="528" type="curve" smooth="yes"/>
      <point x="479" y="528"/>
      <point x="531" y="594"/>
      <point x="531" y="682" type="curve" smooth="yes"/>
      <point x="531" y="769"/>
      <point x="473" y="836"/>
      <point x="391" y="836" type="curve" smooth="yes"/>
    </contour>
    <contour>
      <point x="0" y="676" type="move" name="_mid"/>
    </contour>
  </outline>
</glyph>
<glyph name="ordmasculine" format="1">
  <advance width="975"/>
  <unicode hex="00BA"/>
  <outline>
    <contour>
      <point x="832" y="1420"/>
      <point x="797" y="1490"/>
      <point x="488" y="1490" type="curve" smooth="yes"/>
      <point x="181" y="1490"/>
      <point x="144" y="1420"/>
      <point x="144" y="1066" type="curve" smooth="yes"/>
      <point x="144" y="729"/>
      <point x="167" y="642"/>
      <point x="487" y="642" type="curve" smooth="yes"/>
      <point x="809" y="642"/>
      <point x="832" y="729"/>
      <point x="832" y="1066" type="curve" smooth="yes"/>
    </contour>
    <contour>
      <point x="587" y="1387"/>
      <point x="676" y="1377"/>
      <point x="676" y="1314" type="curve" smooth="yes"/>
      <point x="676" y="1234"/>
      <point x="684" y="1149"/>
      <point x="684" y="1063" type="curve" smooth="yes"/>
      <point x="684" y="976"/>
      <point x="680" y="894"/>
      <point x="676" y="814" type="curve" smooth="yes"/>
      <point x="674" y="759"/>
      <point x="620" y="746"/>
      <point x="488" y="746" type="curve" smooth="yes"/>
      <point x="356" y="746"/>
      <point x="302" y="759"/>
      <point x="300" y="814" type="curve" smooth="yes"/>
      <point x="296" y="894"/>
      <point x="292" y="976"/>
      <point x="292" y="1063" type="curve" smooth="yes"/>
      <point x="292" y="1149"/>
      <point x="300" y="1234"/>
      <point x="300" y="1314" type="curve" smooth="yes"/>
      <point x="300" y="1377"/>
      <point x="389" y="1387"/>
      <point x="488" y="1387" type="curve" smooth="yes"/>
    </contour>
  </outline>
</glyph>
<glyph name="Thorn" format="1">
  <advance width="1302"/>
  <unicode hex="00DE"/>
  <outline>
    <contour>
      <point x="178" y="1490" type="line"/>
      <point x="178" y="0" type="line"/>
      <point x="378" y="0" type="line"/>
      <point x="378" y="383" type="line"/>
      <point x="596" y="383" type="line" smooth="yes"/>
      <point x="641" y="383"/>
      <point x="691" y="381"/>
      <point x="743" y="381" type="curve" smooth="yes"/>
      <point x="958" y="381"/>
      <point x="1183" y="439"/>
      <point x="1183" y="832" type="curve" smooth="yes"/>
      <point x="1183" y="1213"/>
      <point x="1047" y="1284"/>
      <point x="623" y="1284" type="curve" smooth="yes"/>
      <point x="378" y="1284" type="line"/>
      <point x="378" y="1490" type="line"/>
    </contour>
    <contour>
      <point x="942" y="1120"/>
      <point x="984" y="1102"/>
      <point x="984" y="832" type="curve" smooth="yes"/>
      <point x="984" y="816" type="line" smooth="yes"/>
      <point x="984" y="630"/>
      <point x="980" y="551"/>
      <point x="701" y="551" type="curve" smooth="yes"/>
      <point x="378" y="551" type="line"/>
      <point x="378" y="1120" type="line"/>
      <point x="610" y="1120" type="line" smooth="yes"/>
    </contour>
  </outline>
</glyph>
<glyph name="eth" format="1">
  <advance width="1270"/>
  <unicode hex="00F0"/>
  <outline>
    <contour>
      <point x="851" y="1411" type="line"/>
      <point x="738" y="1460"/>
      <point x="577" y="1483"/>
      <point x="348" y="1497" type="curve"/>
      <point x="330" y="1378" type="line"/>
      <point x="535" y="1359"/>
      <point x="666" y="1351"/>
      <point x="752" y="1312" type="curve"/>
      <point x="605" y="1165" type="line"/>
      <point x="665" y="1105" type="line"/>
      <point x="822" y="1262" type="line"/>
      <point x="887" y="1190"/>
      <point x="906" y="1061"/>
      <point x="919" y="816" type="curve"/>
      <point x="900" y="916"/>
      <point x="778" y="966"/>
      <point x="554" y="966" type="curve" smooth="yes"/>
      <point x="247" y="966"/>
      <point x="144" y="853"/>
      <point x="143" y="599" type="curve" smooth="yes"/>
      <point x="142" y="391" type="line"/>
      <point x="142" y="381" type="line" smooth="yes"/>
      <point x="142" y="58"/>
      <point x="240" y="-24"/>
      <point x="649" y="-24" type="curve" smooth="yes"/>
      <point x="1008" y="-24"/>
      <point x="1117" y="58"/>
      <point x="1117" y="452" type="curve" smooth="yes"/>
      <point x="1117" y="979"/>
      <point x="1117" y="1238"/>
      <point x="929" y="1369" type="curve"/>
      <point x="1087" y="1527" type="line"/>
      <point x="1027" y="1587" type="line"/>
    </contour>
    <contour>
      <point x="904" y="838"/>
      <point x="919" y="776"/>
      <point x="919" y="651" type="curve" smooth="yes"/>
      <point x="919" y="204" type="line" smooth="yes"/>
      <point x="919" y="120"/>
      <point x="915" y="104"/>
      <point x="647" y="104" type="curve" smooth="yes"/>
      <point x="377" y="104"/>
      <point x="335" y="110"/>
      <point x="335" y="214" type="curve"/>
      <point x="336" y="714" type="line"/>
      <point x="336" y="824"/>
      <point x="361" y="838"/>
      <point x="649" y="838" type="curve" smooth="yes"/>
    </contour>
  </outline>
</glyph>
<glyph name="divide" format="1">
  <advance width="723"/>
  <unicode hex="00F7"/>
  <outline>
    <contour>
      <point x="20" y="753" type="line"/>
      <point x="20" y="614" type="line"/>
      <point x="707" y="614" type="line"/>
      <point x="707" y="753" type="line"/>
    </contour>
    <contour>
      <point x="277" y="442"/>
      <point x="224" y="383"/>
      <point x="224" y="288" type="curve" smooth="yes"/>
      <point x="224" y="193"/>
      <point x="283" y="134"/>
      <point x="364" y="134" type="curve" smooth="yes"/>
      <point x="450" y="134"/>
      <point x="504" y="203"/>
      <point x="504" y="288" type="curve" smooth="yes"/>
      <point x="504" y="366"/>
      <point x="448" y="442"/>
      <point x="378" y="442" type="curve" smooth="yes"/>
    </contour>
    <contour>
      <point x="277" y="1233"/>
      <point x="224" y="1175"/>
      <point x="224" y="1079" type="curve" smooth="yes"/>
      <point x="224" y="984"/>
      <point x="282" y="925"/>
      <point x="364" y="925" type="curve" smooth="yes"/>
      <point x="452" y="925"/>
      <point x="504" y="991"/>
      <point x="504" y="1079" type="curve" smooth="yes"/>
      <point x="504" y="1157"/>
      <point x="448" y="1233"/>
      <point x="378" y="1233" type="curve" smooth="yes"/>
    </contour>
  </outline>
</glyph>
<glyph name="hbar" format="1">
  <advance width="1305"/>
  <unicode hex="0127"/>
  <outline>
    <contour>
      <point x="278" y="1486" type="line"/>
      <point x="278" y="1372" type="line"/>
      <point x="129" y="1372" type="line"/>
      <point x="129" y="1245" type="line"/>
      <point x="278" y="1245" type="line"/>
      <point x="278" y="0" type="line"/>
      <point x="476" y="0" type="line"/>
      <point x="476" y="572" type="line" smooth="yes"/>
      <point x="476" y="684"/>
      <point x="482" y="793"/>
      <point x="490" y="896" type="curve" smooth="yes"/>
      <point x="496" y="969"/>
      <point x="607" y="990"/>
      <point x="707" y="990" type="curve" smooth="yes"/>
      <point x="930" y="990"/>
      <point x="958" y="952"/>
      <point x="958" y="830" type="curve" smooth="yes"/>
      <point x="958" y="787"/>
      <point x="957" y="733"/>
      <point x="957" y="666" type="curve" smooth="yes"/>
      <point x="957" y="0" type="line"/>
      <point x="1154" y="0" type="line"/>
      <point x="1154" y="756" type="line" smooth="yes"/>
      <point x="1154" y="990"/>
      <point x="1128" y="1128"/>
      <point x="774" y="1128" type="curve" smooth="yes"/>
      <point x="625" y="1128"/>
      <point x="524" y="1090"/>
      <point x="476" y="1014" type="curve"/>
      <point x="476" y="1245" type="line"/>
      <point x="726" y="1245" type="line"/>
      <point x="726" y="1372" type="line"/>
      <point x="476" y="1372" type="line"/>
      <point x="476" y="1502" type="line"/>
    </contour>
  </outline>
</glyph>
<glyph name="lslash" format="1">
  <advance width="785"/>
  <unicode hex="0142"/>
  <outline>
    <contour>
      <point x="287" y="1528" type="line"/>
      <point x="287" y="829" type="line"/>
      <point x="133" y="738" type="line"/>
      <point x="133" y="545" type="line"/>
      <point x="287" y="635" type="line"/>
      <point x="287" y="0" type="line"/>
      <point x="483" y="0" type="line"/>
      <point x="483" y="751" type="line"/>
      <point x="645" y="848" type="line"/>
      <point x="645" y="1041" type="line"/>
      <point x="483" y="945" type="line"/>
      <point x="483" y="1544" type="line"/>
    </contour>
  </outline>
</glyph>
<glyph name="dotlessj" format="1">
  <advance width="576"/>
  <unicode hex="0237"/>
  <outline>
    <contour>
      <point x="223" y="1097" type="line"/>
      <point x="223" y="-64" type="line" smooth="yes"/>
      <point x="223" y="-188"/>
      <point x="135" y="-168"/>
      <point x="54" y="-172" type="curve"/>
      <point x="59" y="-294" type="line"/>
      <point x="98" y="-299"/>
      <point x="134" y="-302"/>
      <point x="165" y="-302" type="curve" smooth="yes"/>
      <point x="363" y="-302"/>
      <point x="420" y="-200"/>
      <point x="420" y="61" type="curve" smooth="yes"/>
      <point x="420" y="1097" type="line"/>
    </contour>
    <contour>
      <point x="323" y="1097" type="move" name="top"/>
    </contour>
  </outline>
</glyph>
<glyph name="circumflex" format="1">
  <advance width="801"/>
  <unicode hex="02C6"/>
  <outline>
    <contour>
      <point x="371" y="1713"/>
      <point x="339" y="1700"/>
      <point x="313" y="1661" type="curve"/>
      <point x="121" y="1352" type="line"/>
      <point x="176" y="1298" type="line"/>
      <point x="407" y="1534" type="line"/>
      <point x="638" y="1298" type="line"/>
      <point x="693" y="1352" type="line"/>
      <point x="501" y="1661" type="line" smooth="yes"/>
      <point x="476" y="1701"/>
      <point x="443" y="1713"/>
      <point x="407" y="1713" type="curve" smooth="yes"/>
    </contour>
    <contour>
      <point x="401" y="1097" type="move" name="_top"/>
    </contour>
  </outline>
</glyph>
<glyph name="caron" format="1">
  <advance width="801"/>
  <unicode hex="02C7"/>
  <outline>
    <contour>
      <point x="407" y="1477" type="line"/>
      <point x="176" y="1713" type="line"/>
      <point x="121" y="1659" type="line"/>
      <point x="313" y="1350" type="line"/>
      <point x="339" y="1311"/>
      <point x="371" y="1298"/>
      <point x="407" y="1298" type="curve" smooth="yes"/>
      <point x="443" y="1298"/>
      <point x="476" y="1310"/>
      <point x="501" y="1350" type="curve" smooth="yes"/>
      <point x="693" y="1659" type="line"/>
      <point x="638" y="1713" type="line"/>
    </contour>
    <contour>
      <point x="401" y="1097" type="move" name="_top"/>
    </contour>
  </outline>
</glyph>
<glyph name="dotaccent" format="1">
  <advance width="447"/>
  <unicode hex="02D9"/>
  <outline>
    <contour>
      <point x="123" y="1638" type="line"/>
      <point x="122" y="1410" type="line"/>
      <point x="331" y="1410" type="line"/>
      <point x="330" y="1638" type="line"/>
    </contour>
    <contour>
      <point x="225" y="1097" type="move" name="_top"/>
    </contour>
  </outline>
</glyph>
<glyph name="ring" format="1">
  <advance width="745"/>
  <unicode hex="02DA"/>
  <outline>
    <contour>
      <point x="215" y="1746"/>
      <point x="117" y="1648"/>
      <point x="117" y="1492" type="curve" smooth="yes"/>
      <point x="117" y="1336"/>
      <point x="216" y="1238"/>
      <point x="374" y="1238" type="curve" smooth="yes"/>
      <point x="531" y="1238"/>
      <point x="630" y="1336"/>
      <point x="630" y="1492" type="curve" smooth="yes"/>
      <point x="630" y="1648"/>
      <point x="530" y="1746"/>
      <point x="372" y="1746" type="curve" smooth="yes"/>
    </contour>
    <contour>
      <point x="437" y="1628"/>
      <point x="487" y="1575"/>
      <point x="487" y="1490" type="curve" smooth="yes"/>
      <point x="487" y="1407"/>
      <point x="448" y="1355"/>
      <point x="385" y="1355" type="curve" smooth="yes"/>
      <point x="306" y="1355"/>
      <point x="257" y="1408"/>
      <point x="257" y="1492" type="curve" smooth="yes"/>
      <point x="257" y="1576"/>
      <point x="296" y="1628"/>
      <point x="358" y="1628" type="curve" smooth="yes"/>
    </contour>
    <contour>
      <point x="373" y="1097" type="move" name="_top"/>
    </contour>
  </outline>
</glyph>
<glyph name="ogonek" format="1">
  <advance width="716"/>
  <unicode hex="02DB"/>
  <outline>
    <contour>
      <point x="374" y="0" type="line"/>
      <point x="211" y="-163"/>
      <point x="112" y="-263"/>
      <point x="112" y="-409" type="curve" smooth="yes"/>
      <point x="112" y="-517"/>
      <point x="198" y="-554"/>
      <point x="297" y="-554" type="curve" smooth="yes"/>
      <point x="411" y="-554"/>
      <point x="542" y="-505"/>
      <point x="583" y="-459" type="curve"/>
      <point x="548" y="-381" type="line"/>
      <point x="513" y="-397"/>
      <point x="441" y="-427"/>
      <point x="384" y="-427" type="curve" smooth="yes"/>
      <point x="338" y="-427"/>
      <point x="301" y="-407"/>
      <point x="301" y="-341" type="curve" smooth="yes"/>
      <point x="301" y="-234"/>
      <point x="377" y="-107"/>
      <point x="482" y="0" type="curve"/>
    </contour>
    <contour>
      <point x="423" y="0" type="move" name="_ogonek"/>
    </contour>
  </outline>
</glyph>
<glyph name="tilde" format="1">
  <advance width="1015"/>
  <unicode hex="02DC"/>
  <outline>
    <contour>
      <point x="731" y="1446"/>
      <point x="674" y="1425"/>
      <point x="623" y="1425" type="curve" smooth="yes"/>
      <point x="549" y="1425"/>
      <point x="498" y="1493"/>
      <point x="374" y="1493" type="curve" smooth="yes"/>
      <point x="281" y="1493"/>
      <point x="203" y="1457"/>
      <point x="165" y="1337" type="curve"/>
      <point x="194" y="1294" type="line"/>
      <point x="244" y="1340"/>
      <point x="292" y="1357"/>
      <point x="340" y="1357" type="curve" smooth="yes"/>
      <point x="427" y="1357"/>
      <point x="513" y="1273"/>
      <point x="615" y="1273" type="curve" smooth="yes"/>
      <point x="718" y="1273"/>
      <point x="803" y="1317"/>
      <point x="842" y="1458" type="curve"/>
      <point x="808" y="1508" type="line"/>
    </contour>
    <contour>
      <point x="508" y="1097" type="move" name="_top"/>
    </contour>
  </outline>
</glyph>
<glyph name="hungarumlaut" format="1">
  <advance width="1126"/>
  <unicode hex="02DD"/>
  <outline>
    <contour>
      <point x="884" y="1700"/>
      <point x="856" y="1684"/>
      <point x="832" y="1665" type="curve" smooth="yes"/>
      <point x="794" y="1633"/>
      <point x="536" y="1368"/>
      <point x="536" y="1368" type="curve"/>
      <point x="553" y="1347" type="line"/>
      <point x="553" y="1348"/>
      <point x="923" y="1485"/>
      <point x="948" y="1496" type="curve" smooth="yes"/>
      <point x="997" y="1517"/>
      <point x="1019" y="1561"/>
      <point x="1019" y="1600" type="curve" smooth="yes"/>
      <point x="1019" y="1651"/>
      <point x="982" y="1700"/>
      <point x="916" y="1700" type="curve" smooth="yes"/>
    </contour>
    <contour>
      <point x="455" y="1700"/>
      <point x="427" y="1684"/>
      <point x="403" y="1665" type="curve" smooth="yes"/>
      <point x="365" y="1633"/>
      <point x="107" y="1368"/>
      <point x="107" y="1368" type="curve"/>
      <point x="124" y="1347" type="line"/>
      <point x="124" y="1348"/>
      <point x="494" y="1485"/>
      <point x="519" y="1496" type="curve" smooth="yes"/>
      <point x="568" y="1517"/>
      <point x="590" y="1561"/>
      <point x="590" y="1600" type="curve" smooth="yes"/>
      <point x="590" y="1651"/>
      <point x="553" y="1700"/>
      <point x="487" y="1700" type="curve" smooth="yes"/>
    </contour>
    <contour>
      <point x="363" y="1097" type="move" name="_top"/>
    </contour>
  </outline>
</glyph>
<glyph name="dblgravecmb" format="1">
  <advance width="1127"/>
  <unicode hex="030F"/>
  <outline>
    <contour>
      <point x="563" y="1700"/>
      <point x="526" y="1651"/>
      <point x="526" y="1600" type="curve" smooth="yes"/>
      <point x="526" y="1561"/>
      <point x="548" y="1517"/>
      <point x="597" y="1496" type="curve" smooth="yes"/>
      <point x="622" y="1485"/>
      <point x="992" y="1348"/>
      <point x="992" y="1347" type="curve"/>
      <point x="1009" y="1368" type="line"/>
      <point x="1009" y="1368"/>
      <point x="751" y="1633"/>
      <point x="713" y="1665" type="curve" smooth="yes"/>
      <point x="689" y="1684"/>
      <point x="661" y="1700"/>
      <point x="629" y="1700" type="curve" smooth="yes"/>
    </contour>
    <contour>
      <point x="134" y="1700"/>
      <point x="97" y="1651"/>
      <point x="97" y="1600" type="curve" smooth="yes"/>
      <point x="97" y="1561"/>
      <point x="119" y="1517"/>
      <point x="168" y="1496" type="curve" smooth="yes"/>
      <point x="193" y="1485"/>
      <point x="563" y="1348"/>
      <point x="563" y="1347" type="curve"/>
      <point x="580" y="1368" type="line"/>
      <point x="580" y="1368"/>
      <point x="322" y="1633"/>
      <point x="284" y="1665" type="curve" smooth="yes"/>
      <point x="260" y="1684"/>
      <point x="232" y="1700"/>
      <point x="200" y="1700" type="curve" smooth="yes"/>
    </contour>
    <contour>
      <point x="747" y="1097" type="move" name="_top"/>
    </contour>
  </outline>
</glyph>
<glyph name="commaturnedabovecomb" format="1">
  <advance width="600"/>
  <unicode hex="0312"/>
  <outline>
    <contour>
      <point x="279" y="1798"/>
      <point x="146" y="1635"/>
      <point x="146" y="1463" type="curve" smooth="yes"/>
      <point x="146" y="1332"/>
      <point x="213" y="1247"/>
      <point x="318" y="1247" type="curve" smooth="yes"/>
      <point x="415" y="1247"/>
      <point x="473" y="1346"/>
      <point x="473" y="1403" type="curve" smooth="yes"/>
      <point x="473" y="1512"/>
      <point x="426" y="1568"/>
      <point x="331" y="1573" type="curve"/>
      <point x="331" y="1665"/>
      <point x="382" y="1735"/>
      <point x="459" y="1738" type="curve"/>
      <point x="459" y="1798" type="line"/>
    </contour>
    <contour>
      <point x="319" y="1097" type="move" name="_top"/>
    </contour>
  </outline>
</glyph>
<glyph name="commaaccent" format="1">
  <advance width="502"/>
  <unicode hex="0326"/>
  <outline>
    <contour>
      <point x="165" y="-140"/>
      <point x="107" y="-239"/>
      <point x="107" y="-296" type="curve" smooth="yes"/>
      <point x="107" y="-405"/>
      <point x="154" y="-461"/>
      <point x="249" y="-466" type="curve"/>
      <point x="249" y="-558"/>
      <point x="198" y="-628"/>
      <point x="121" y="-631" type="curve"/>
      <point x="121" y="-691" type="line"/>
      <point x="301" y="-691"/>
      <point x="434" y="-528"/>
      <point x="434" y="-356" type="curve" smooth="yes"/>
      <point x="434" y="-225"/>
      <point x="367" y="-140"/>
      <point x="262" y="-140" type="curve" smooth="yes"/>
    </contour>
    <contour>
      <point x="261" y="0" type="move" name="_bottom"/>
    </contour>
  </outline>
</glyph>
<glyph name="Delta" format="1">
  <advance width="1382"/>
  <unicode hex="0394"/>
  <outline>
    <contour>
      <point x="591" y="1490" type="line"/>
      <point x="64" y="0" type="line"/>
      <point x="1319" y="0" type="line"/>
      <point x="762" y="1490" type="line"/>
    </contour>
    <contour>
      <point x="1021" y="144" type="line"/>
      <point x="227" y="144" type="line"/>
      <point x="623" y="1287" type="line"/>
    </contour>
  </outline>
</glyph>
<glyph name="Sigma" format="1">
  <advance width="1193"/>
  <unicode hex="03A3"/>
  <outline>
    <contour>
      <point x="126" y="1490" type="line"/>
      <point x="126" y="1293" type="line"/>
      <point x="614" y="775" type="line"/>
      <point x="126" y="220" type="line"/>
      <point x="126" y="0" type="line"/>
      <point x="1113" y="0" type="line"/>
      <point x="1113" y="201" type="line"/>
      <point x="363" y="201" type="line"/>
      <point x="840" y="726" type="line"/>
      <point x="840" y="827" type="line"/>
      <point x="376" y="1292" type="line"/>
      <point x="1065" y="1292" type="line"/>
      <point x="1065" y="1490" type="line"/>
    </contour>
  </outline>
</glyph>
<glyph name="mu" format="1">
  <advance width="1176"/>
  <unicode hex="03BC"/>
  <outline>
    <contour>
      <point x="821" y="1097" type="line"/>
      <point x="821" y="383" type="line" smooth="yes"/>
      <point x="821" y="355"/>
      <point x="822" y="328"/>
      <point x="822" y="303" type="curve" smooth="yes"/>
      <point x="822" y="196"/>
      <point x="801" y="122"/>
      <point x="581" y="122" type="curve" smooth="yes"/>
      <point x="388" y="122"/>
      <point x="353" y="151"/>
      <point x="347" y="287" type="curve"/>
      <point x="347" y="1097" type="line"/>
      <point x="150" y="1097" type="line"/>
      <point x="150" y="-340" type="line"/>
      <point x="347" y="-340" type="line"/>
      <point x="347" y="1" type="line"/>
      <point x="387" y="-10"/>
      <point x="436" y="-15"/>
      <point x="493" y="-14.9999" type="curve" smooth="yes"/>
      <point x="651" y="-14.9999"/>
      <point x="783" y="29.0001"/>
      <point x="820" y="140" type="curve"/>
      <point x="838" y="-0.999901" type="line"/>
      <point x="1020" y="-0.999901" type="line"/>
      <point x="1020" y="1097" type="line"/>
    </contour>
    <contour>
      <point x="584" y="1097" type="move" name="top"/>
    </contour>
    <contour>
      <point x="1053" y="10" type="move" name="ogonek"/>
    </contour>
    <contour>
      <point x="588" y="0" type="move" name="bot"/>
    </contour>
  </outline>
</glyph>
<glyph name="quoteleft" format="1">
  <advance width="568"/>
  <unicode hex="2018"/>
  <outline>
    <contour>
      <point x="269" y="1552"/>
      <point x="136" y="1386"/>
      <point x="136" y="1202" type="curve" smooth="yes"/>
      <point x="136" y="1067"/>
      <point x="187" y="1000"/>
      <point x="289" y="1000" type="curve" smooth="yes"/>
      <point x="376" y="1000"/>
      <point x="429" y="1081"/>
      <point x="429" y="1135" type="curve" smooth="yes"/>
      <point x="429" y="1235"/>
      <point x="385" y="1285"/>
      <point x="297" y="1285" type="curve"/>
      <point x="297" y="1387"/>
      <point x="349" y="1484"/>
      <point x="434" y="1484" type="curve"/>
      <point x="434" y="1552" type="line"/>
    </contour>
  </outline>
</glyph>
<glyph name="quoteright" format="1">
  <advance width="569"/>
  <unicode hex="2019"/>
  <outline>
    <contour>
      <point x="201" y="1552"/>
      <point x="152" y="1474"/>
      <point x="152" y="1417" type="curve" smooth="yes"/>
      <point x="152" y="1317"/>
      <point x="196" y="1267"/>
      <point x="284" y="1267" type="curve"/>
      <point x="284" y="1163"/>
      <point x="233" y="1068"/>
      <point x="147" y="1068" type="curve"/>
      <point x="147" y="1000" type="line"/>
      <point x="316" y="1000"/>
      <point x="446" y="1175"/>
      <point x="446" y="1350" type="curve" smooth="yes"/>
      <point x="446" y="1466"/>
      <point x="395" y="1552"/>
      <point x="312" y="1552" type="curve" smooth="yes"/>
    </contour>
  </outline>
</glyph>
<glyph name="quotesinglbase" format="1">
  <advance width="434"/>
  <unicode hex="201A"/>
  <outline>
    <contour>
      <point x="144" y="301"/>
      <point x="130" y="261"/>
      <point x="130" y="164" type="curve" smooth="yes"/>
      <point x="130" y="85"/>
      <point x="205" y="-270"/>
      <point x="205" y="-270" type="curve"/>
      <point x="230" y="-276" type="line"/>
      <point x="230" y="-276"/>
      <point x="303" y="96"/>
      <point x="303" y="179" type="curve" smooth="yes"/>
      <point x="303" y="261"/>
      <point x="273" y="301"/>
      <point x="217" y="301" type="curve" smooth="yes"/>
    </contour>
  </outline>
</glyph>
<glyph name="quotedblleft" format="1">
  <advance width="1049"/>
  <unicode hex="201C"/>
  <outline>
    <contour>
      <point x="748" y="1552"/>
      <point x="614" y="1381"/>
      <point x="614" y="1202" type="curve" smooth="yes"/>
      <point x="614" y="1089"/>
      <point x="666" y="1000"/>
      <point x="751" y="1000" type="curve" smooth="yes"/>
      <point x="863" y="1000"/>
      <point x="909" y="1082"/>
      <point x="909" y="1135" type="curve" smooth="yes"/>
      <point x="909" y="1235"/>
      <point x="865" y="1285"/>
      <point x="778" y="1285" type="curve"/>
      <point x="778" y="1389"/>
      <point x="831" y="1484"/>
      <point x="914" y="1484" type="curve"/>
      <point x="914" y="1552" type="line"/>
    </contour>
    <contour>
      <point x="264" y="1552"/>
      <point x="136" y="1380"/>
      <point x="136" y="1202" type="curve" smooth="yes"/>
      <point x="136" y="1067"/>
      <point x="187" y="1000"/>
      <point x="289" y="1000" type="curve" smooth="yes"/>
      <point x="375" y="1000"/>
      <point x="431" y="1077"/>
      <point x="431" y="1135" type="curve" smooth="yes"/>
      <point x="431" y="1235"/>
      <point x="386" y="1285"/>
      <point x="297" y="1285" type="curve"/>
      <point x="297" y="1389"/>
      <point x="349" y="1484"/>
      <point x="436" y="1484" type="curve"/>
      <point x="436" y="1552" type="line"/>
    </contour>
  </outline>
</glyph>
<glyph name="dagger" format="1">
  <advance width="1066"/>
  <unicode hex="2020"/>
  <outline>
    <contour>
      <point x="485" y="1552"/>
      <point x="434" y="1514"/>
      <point x="434" y="1398" type="curve" smooth="yes"/>
      <point x="434" y="1338"/>
      <point x="456" y="1208"/>
      <point x="501" y="1007" type="curve"/>
      <point x="442" y="1030" type="line" smooth="yes"/>
      <point x="368" y="1059"/>
      <point x="319" y="1084"/>
      <point x="221" y="1084" type="curve" smooth="yes"/>
      <point x="165" y="1084"/>
      <point x="131" y="1035"/>
      <point x="131" y="972" type="curve" smooth="yes"/>
      <point x="131" y="901"/>
      <point x="169" y="865"/>
      <point x="246" y="865" type="curve" smooth="yes"/>
      <point x="320" y="865"/>
      <point x="496" y="939"/>
      <point x="497" y="939" type="curve"/>
      <point x="479" y="743" type="line" smooth="yes"/>
      <point x="461" y="546"/>
      <point x="428" y="349"/>
      <point x="428" y="146" type="curve" smooth="yes"/>
      <point x="428" y="60"/>
      <point x="456" y="8"/>
      <point x="534" y="8" type="curve" smooth="yes"/>
      <point x="605" y="8"/>
      <point x="640" y="53"/>
      <point x="640" y="146" type="curve" smooth="yes"/>
      <point x="640" y="283"/>
      <point x="615" y="444"/>
      <point x="598" y="629" type="curve" smooth="yes"/>
      <point x="570" y="939" type="line"/>
      <point x="696" y="890"/>
      <point x="780" y="865"/>
      <point x="821" y="865" type="curve" smooth="yes"/>
      <point x="891" y="865"/>
      <point x="937" y="898"/>
      <point x="937" y="959" type="curve" smooth="yes"/>
      <point x="937" y="1041"/>
      <point x="904" y="1084"/>
      <point x="836" y="1084" type="curve" smooth="yes"/>
      <point x="786" y="1084"/>
      <point x="696" y="1058"/>
      <point x="565" y="1007" type="curve"/>
      <point x="611" y="1218"/>
      <point x="634" y="1346"/>
      <point x="634" y="1390" type="curve" smooth="yes"/>
      <point x="634" y="1512"/>
      <point x="597" y="1552"/>
      <point x="534" y="1552" type="curve" smooth="yes"/>
    </contour>
  </outline>
</glyph>
<glyph name="daggerdbl" format="1">
  <advance width="1202"/>
  <unicode hex="2021"/>
  <outline>
    <contour>
      <point x="512" y="1552"/>
      <point x="454" y="1495"/>
      <point x="454" y="1400" type="curve" smooth="yes"/>
      <point x="454" y="1307"/>
      <point x="525" y="1093"/>
      <point x="538" y="1047" type="curve"/>
      <point x="405" y="1105"/>
      <point x="315" y="1134"/>
      <point x="270" y="1134" type="curve" smooth="yes"/>
      <point x="187" y="1134"/>
      <point x="141" y="1090"/>
      <point x="141" y="1013" type="curve" smooth="yes"/>
      <point x="141" y="934"/>
      <point x="184" y="895"/>
      <point x="270" y="895" type="curve" smooth="yes"/>
      <point x="315" y="895"/>
      <point x="405" y="923"/>
      <point x="538" y="979" type="curve"/>
      <point x="538" y="535" type="line"/>
      <point x="408" y="591"/>
      <point x="319" y="619"/>
      <point x="272" y="619" type="curve" smooth="yes"/>
      <point x="185" y="619"/>
      <point x="141" y="579"/>
      <point x="141" y="500" type="curve" smooth="yes"/>
      <point x="141" y="423"/>
      <point x="188" y="381"/>
      <point x="271" y="381" type="curve" smooth="yes"/>
      <point x="317" y="381"/>
      <point x="406" y="410"/>
      <point x="538" y="467" type="curve"/>
      <point x="511" y="374" type="line"/>
      <point x="489" y="265"/>
      <point x="454" y="193"/>
      <point x="454" y="112" type="curve" smooth="yes"/>
      <point x="454" y="19"/>
      <point x="513" y="-38"/>
      <point x="602" y="-38" type="curve" smooth="yes"/>
      <point x="691" y="-38"/>
      <point x="749" y="19"/>
      <point x="749" y="114" type="curve" smooth="yes"/>
      <point x="749" y="192"/>
      <point x="703" y="339"/>
      <point x="679" y="420" type="curve" smooth="yes"/>
      <point x="665" y="467" type="line"/>
      <point x="709" y="451"/>
      <point x="819" y="381"/>
      <point x="956" y="381" type="curve" smooth="yes"/>
      <point x="1021" y="381"/>
      <point x="1061" y="439"/>
      <point x="1061" y="500" type="curve" smooth="yes"/>
      <point x="1061" y="576"/>
      <point x="1015" y="619"/>
      <point x="934" y="619" type="curve" smooth="yes"/>
      <point x="889" y="619"/>
      <point x="799" y="591"/>
      <point x="665" y="535" type="curve"/>
      <point x="665" y="979" type="line"/>
      <point x="794" y="923"/>
      <point x="882" y="895"/>
      <point x="931" y="895" type="curve" smooth="yes"/>
      <point x="1009" y="895"/>
      <point x="1061" y="933"/>
      <point x="1061" y="1000" type="curve" smooth="yes"/>
      <point x="1061" y="1089"/>
      <point x="1022" y="1134"/>
      <point x="943" y="1134" type="curve" smooth="yes"/>
      <point x="900" y="1134"/>
      <point x="808" y="1105"/>
      <point x="665" y="1047" type="curve"/>
      <point x="703" y="1193"/>
      <point x="749" y="1324"/>
      <point x="749" y="1402" type="curve" smooth="yes"/>
      <point x="749" y="1493"/>
      <point x="690" y="1552"/>
      <point x="602" y="1552" type="curve" smooth="yes"/>
    </contour>
  </outline>
</glyph>
<glyph name="bullet" format="1">
  <advance width="941"/>
  <unicode hex="2022"/>
  <outline>
    <contour>
      <point x="254" y="1030"/>
      <point x="129" y="851"/>
      <point x="129" y="662" type="curve" smooth="yes"/>
      <point x="129" y="471"/>
      <point x="256" y="298"/>
      <point x="475" y="298" type="curve" smooth="yes"/>
      <point x="690" y="298"/>
      <point x="810" y="467"/>
      <point x="810" y="664" type="curve" smooth="yes"/>
      <point x="810" y="858"/>
      <point x="694" y="1030"/>
      <point x="477" y="1030" type="curve" smooth="yes"/>
    </contour>
  </outline>
</glyph>
<glyph name="perthousand" format="1">
  <advance width="3136"/>
  <unicode hex="2030"/>
  <outline>
    <contour>
      <point x="2391" y="1020"/>
      <point x="2299" y="958"/>
      <point x="2299" y="706" type="curve" smooth="yes"/>
      <point x="2299" y="265"/>
      <point x="2303" y="166"/>
      <point x="2646" y="166" type="curve" smooth="yes"/>
      <point x="2906" y="166"/>
      <point x="2997" y="234"/>
      <point x="2997" y="480" type="curve" smooth="yes"/>
      <point x="2997" y="918"/>
      <point x="2989" y="1020"/>
      <point x="2646" y="1020" type="curve" smooth="yes"/>
    </contour>
    <contour>
      <point x="2838" y="889"/>
      <point x="2842" y="886"/>
      <point x="2842" y="657" type="curve" smooth="yes"/>
      <point x="2842" y="512" type="line" smooth="yes"/>
      <point x="2842" y="313"/>
      <point x="2828" y="298"/>
      <point x="2629" y="298" type="curve" smooth="yes"/>
      <point x="2460" y="298"/>
      <point x="2446" y="312"/>
      <point x="2446" y="516" type="curve" smooth="yes"/>
      <point x="2446" y="556"/>
      <point x="2447" y="604"/>
      <point x="2447" y="661" type="curve" smooth="yes"/>
      <point x="2447" y="888"/>
      <point x="2463" y="889"/>
      <point x="2646" y="889" type="curve" smooth="yes"/>
    </contour>
    <component base="percent"/>
  </outline>
</glyph>
<glyph name="partialdiff" format="1">
  <advance width="1188"/>
  <unicode hex="2202"/>
  <outline>
    <contour>
      <point x="324" y="1286" type="line"/>
      <point x="712" y="1286"/>
      <point x="866" y="1008"/>
      <point x="871" y="774" type="curve"/>
      <point x="818" y="864"/>
      <point x="724" y="908"/>
      <point x="617" y="908" type="curve" smooth="yes"/>
      <point x="394" y="908"/>
      <point x="157" y="746"/>
      <point x="127" y="454" type="curve" smooth="yes"/>
      <point x="125" y="434"/>
      <point x="124" y="414"/>
      <point x="124" y="395" type="curve" smooth="yes"/>
      <point x="124" y="170"/>
      <point x="262" y="-24"/>
      <point x="541" y="-24" type="curve" smooth="yes"/>
      <point x="867" y="-24"/>
      <point x="1037" y="215"/>
      <point x="1071" y="529" type="curve" smooth="yes"/>
      <point x="1076" y="578"/>
      <point x="1079" y="626"/>
      <point x="1079" y="674" type="curve" smooth="yes"/>
      <point x="1079" y="1066"/>
      <point x="901" y="1432"/>
      <point x="339" y="1432" type="curve"/>
    </contour>
    <contour>
      <point x="714" y="736"/>
      <point x="776" y="689"/>
      <point x="859" y="588" type="curve"/>
      <point x="860" y="579"/>
      <point x="860" y="570"/>
      <point x="860" y="561" type="curve" smooth="yes"/>
      <point x="860" y="543"/>
      <point x="858" y="528"/>
      <point x="857" y="511" type="curve" smooth="yes"/>
      <point x="837" y="322"/>
      <point x="746" y="146"/>
      <point x="571" y="146" type="curve" smooth="yes"/>
      <point x="445" y="146"/>
      <point x="346" y="233"/>
      <point x="346" y="397" type="curve" smooth="yes"/>
      <point x="346" y="412"/>
      <point x="347" y="428"/>
      <point x="349" y="444" type="curve" smooth="yes"/>
      <point x="367" y="617"/>
      <point x="480" y="736"/>
      <point x="620" y="736" type="curve" smooth="yes"/>
    </contour>
  </outline>
</glyph>
<glyph name="minus" format="1">
  <advance width="883"/>
  <unicode hex="2212"/>
  <outline>
    <contour>
      <point x="52" y="677" type="line"/>
      <point x="52" y="538" type="line"/>
      <point x="835" y="538" type="line"/>
      <point x="835" y="677" type="line"/>
    </contour>
  </outline>
</glyph>
<glyph name="integral" format="1">
  <advance width="927"/>
  <unicode hex="222B"/>
  <outline>
    <contour>
      <point x="525" y="1674"/>
      <point x="410" y="1625"/>
      <point x="385" y="1334" type="curve" smooth="yes"/>
      <point x="271" y="27" type="line" smooth="yes"/>
      <point x="259" y="-109"/>
      <point x="244" y="-134"/>
      <point x="159" y="-134" type="curve" smooth="yes"/>
      <point x="129" y="-134"/>
      <point x="88" y="-123"/>
      <point x="57" y="-105" type="curve"/>
      <point x="-12" y="-254" type="line"/>
      <point x="32" y="-278"/>
      <point x="115" y="-304"/>
      <point x="171" y="-304" type="curve" smooth="yes"/>
      <point x="352" y="-304"/>
      <point x="468" y="-255"/>
      <point x="493" y="36" type="curve" smooth="yes"/>
      <point x="606" y="1343" type="line" smooth="yes"/>
      <point x="618" y="1479"/>
      <point x="633" y="1504"/>
      <point x="718" y="1504" type="curve" smooth="yes"/>
      <point x="748" y="1504"/>
      <point x="789" y="1492"/>
      <point x="820" y="1475" type="curve"/>
      <point x="889" y="1623" type="line"/>
      <point x="845" y="1648"/>
      <point x="762" y="1674"/>
      <point x="706" y="1674" type="curve" smooth="yes"/>
    </contour>
  </outline>
</glyph>
<glyph name="notequal" format="1">
  <advance width="600"/>
  <unicode hex="2260"/>
  <outline>
    <contour>
      <point x="480" y="1224" type="line"/>
      <point x="395" y="981" type="line"/>
      <point x="-56" y="981" type="line"/>
      <point x="-56" y="792" type="line"/>
      <point x="329.006" y="792" type="line"/>
      <point x="263" y="603" type="line"/>
      <point x="-56" y="603" type="line"/>
      <point x="-56" y="414" type="line"/>
      <point x="197" y="414" type="line"/>
      <point x="113" y="174" type="line"/>
      <point x="292" y="174" type="line"/>
      <point x="376" y="414" type="line"/>
      <point x="779" y="414" type="line"/>
      <point x="779" y="603" type="line"/>
      <point x="442" y="603" type="line"/>
      <point x="507" y="792" type="line"/>
      <point x="779" y="792" type="line"/>
      <point x="779" y="981" type="line"/>
      <point x="573" y="981" type="line"/>
      <point x="658" y="1224" type="line"/>
    </contour>
  </outline>
</glyph>
<glyph name="uniF6C3" format="1">
  <advance width="679"/>
  <unicode hex="F6C3"/>
  <outline>
    <contour>
      <point x="234" y="-140"/>
      <point x="176" y="-239"/>
      <point x="176" y="-296" type="curve" smooth="yes"/>
      <point x="176" y="-405"/>
      <point x="223" y="-461"/>
      <point x="318" y="-466" type="curve"/>
      <point x="318" y="-558"/>
      <point x="267" y="-628"/>
      <point x="190" y="-631" type="curve"/>
      <point x="190" y="-691" type="line"/>
      <point x="370" y="-691"/>
      <point x="503" y="-528"/>
      <point x="503" y="-356" type="curve" smooth="yes"/>
      <point x="503" y="-225"/>
      <point x="436" y="-140"/>
      <point x="331" y="-140" type="curve" smooth="yes"/>
    </contour>
  </outline>
</glyph>
